<svg width="114" height="35" viewBox="0 0 114 35" fill="none" xmlns="http://www.w3.org/2000/svg">
<path d="M10.6003 20.44C10.7603 20.5733 10.8403 20.6933 10.8403 20.8C10.8403 20.8267 10.8136 20.92 10.7603 21.08C10.6003 21.32 10.2803 21.8667 9.80031 22.72C9.34698 23.5467 8.80031 24.4133 8.16031 25.32C7.54698 26.2267 6.88031 27.04 6.16031 27.76C5.46698 28.48 4.78698 28.84 4.12031 28.84C3.64031 28.84 3.17365 28.7467 2.72031 28.56C2.26698 28.3467 1.88031 28.08 1.56031 27.76C1.21365 27.4133 0.933646 27.0133 0.720312 26.56C0.506979 26.1067 0.400312 25.6133 0.400312 25.08C0.400312 24.7067 0.466979 24.2933 0.600312 23.84C0.680312 23.52 0.853646 23.04 1.12031 22.4C1.38698 21.76 1.70698 21.12 2.08031 20.48C2.42698 19.84 2.80031 19.28 3.20031 18.8C3.60031 18.32 3.98698 18.08 4.36031 18.08C4.52031 18.08 4.70698 18.1333 4.92031 18.24C5.16031 18.32 5.37365 18.44 5.56031 18.6C5.74698 18.7333 5.90698 18.88 6.04031 19.04C6.17365 19.2 6.24031 19.3467 6.24031 19.48C6.24031 19.5867 6.20031 19.7333 6.12031 19.92C5.88031 20.48 5.61365 21.0533 5.32031 21.64C5.02698 22.2 4.76031 22.7867 4.52031 23.4C4.28031 23.9867 4.08031 24.5867 3.92031 25.2C3.76031 25.7867 3.68031 26.3733 3.68031 26.96C4.26698 26.4 4.84031 25.7733 5.40031 25.08C5.96031 24.36 6.53365 23.6533 7.12031 22.96C7.25365 22.8 7.42698 22.56 7.64031 22.24C7.88031 21.92 8.12031 21.6 8.36031 21.28C8.60031 20.96 8.84031 20.68 9.08031 20.44C9.32031 20.2 9.52031 20.08 9.68031 20.08C9.84031 20.1333 10.0003 20.1867 10.1603 20.24C10.3203 20.2667 10.467 20.3333 10.6003 20.44ZM7.00031 16.16C6.57365 16.0533 6.12031 15.84 5.64031 15.52C5.18698 15.2 4.96031 14.8133 4.96031 14.36C4.96031 14.0667 5.02698 13.7467 5.16031 13.4C5.29365 13.0267 5.45365 12.6533 5.64031 12.28C5.85365 11.88 6.06698 11.4933 6.28031 11.12C6.49365 10.72 6.69365 10.3467 6.88031 10C7.01365 9.76 7.16031 9.61333 7.32031 9.56C7.48031 9.48 7.64031 9.37333 7.80031 9.24C8.01365 9.29333 8.26698 9.38666 8.56031 9.52C8.88031 9.62666 9.17365 9.77333 9.44031 9.96C9.70698 10.1467 9.93365 10.36 10.1203 10.6C10.307 10.8133 10.4003 11.04 10.4003 11.28C9.86698 12.2133 9.37365 13.0267 8.92031 13.72C8.54698 14.3333 8.18698 14.8933 7.84031 15.4C7.49365 15.9067 7.28031 16.16 7.20031 16.16H7.00031ZM19.4503 19.6C18.837 19.6267 18.2103 19.6667 17.5703 19.72C16.957 19.7467 16.3436 19.76 15.7303 19.76C15.197 19.76 14.7303 19.6267 14.3303 19.36C13.957 19.0667 13.7703 18.6133 13.7703 18C13.7703 17.6533 13.9836 17.4533 14.4103 17.4C14.8636 17.32 15.277 17.28 15.6503 17.28C16.5303 17.28 17.4103 17.2667 18.2903 17.24C19.1703 17.1867 19.9436 17.2 20.6103 17.28C21.3036 17.36 21.8636 17.5467 22.2903 17.84C22.717 18.1333 22.9303 18.6 22.9303 19.24C22.9303 19.4 22.7836 19.52 22.4903 19.6C22.197 19.6533 21.8503 19.68 21.4503 19.68C21.077 19.68 20.6903 19.68 20.2903 19.68C19.917 19.6533 19.637 19.64 19.4503 19.64V19.6ZM35.2944 8.64C34.0677 8.88 32.8277 9.24 31.5744 9.72C30.3477 10.2 29.1344 10.52 27.9344 10.68C27.881 10.7067 27.801 10.72 27.6944 10.72C27.4277 10.72 27.1744 10.6267 26.9344 10.44C26.6944 10.2267 26.481 9.98667 26.2944 9.72C26.1344 9.42667 26.001 9.12 25.8944 8.8C25.7877 8.48 25.7344 8.21333 25.7344 8C25.7344 7.68 26.0144 7.34666 26.5744 7C27.1344 6.62667 27.8144 6.26667 28.6144 5.92C29.441 5.57333 30.2944 5.25333 31.1744 4.96C32.081 4.64 32.8677 4.36 33.5344 4.12C34.5477 3.77333 35.601 3.4 36.6944 3C37.7877 2.6 38.8944 2.24 40.0144 1.92C41.1344 1.6 42.2544 1.33333 43.3744 1.12C44.4944 0.906665 45.5877 0.799998 46.6544 0.799998C47.0277 0.799998 47.4544 0.813331 47.9344 0.839998C48.4144 0.866664 48.881 0.919998 49.3344 0.999998C49.8144 1.05333 50.241 1.14667 50.6144 1.28C51.0144 1.38667 51.2944 1.54667 51.4544 1.76C51.7477 2.16 51.9877 2.57333 52.1744 3C52.361 3.42666 52.4544 3.88 52.4544 4.36C52.4544 4.57333 52.4144 4.76 52.3344 4.92C52.281 5.08 52.1877 5.16 52.0544 5.16C51.9744 5.16 51.881 5.13333 51.7744 5.08C51.6944 5.02667 51.601 5 51.4944 5C50.961 5 50.4277 5.06667 49.8944 5.2C49.3877 5.30667 48.9077 5.42667 48.4544 5.56C47.281 5.93333 46.0677 6.21333 44.8144 6.4C43.561 6.58667 42.321 6.81333 41.0944 7.08C41.0144 7.13333 40.961 7.16 40.9344 7.16C40.9077 7.16 40.8944 7.18667 40.8944 7.24C41.0277 7.45333 41.121 7.66667 41.1744 7.88C41.2277 8.09333 41.2544 8.30667 41.2544 8.52C41.2544 8.97333 41.1744 9.42667 41.0144 9.88C40.8544 10.3067 40.681 10.7467 40.4944 11.2C39.001 14.56 37.5344 17.9067 36.0944 21.24C34.681 24.5733 33.2544 27.96 31.8144 31.4C31.7344 31.5867 31.601 31.8267 31.4144 32.12C31.2544 32.4133 31.0677 32.7067 30.8544 33C30.6677 33.2667 30.4677 33.5067 30.2544 33.72C30.0677 33.9067 29.9077 34 29.7744 34C29.3744 34 28.961 33.92 28.5344 33.76C28.1344 33.6 27.761 33.3867 27.4144 33.12C27.0944 32.8533 26.8277 32.56 26.6144 32.24C26.401 31.8933 26.2944 31.5467 26.2944 31.2C26.2944 29.7333 26.5477 28.2933 27.0544 26.88C27.561 25.4667 28.1077 24.08 28.6944 22.72C29.681 20.3733 30.681 18.08 31.6944 15.84C32.7344 13.5733 33.8677 11.32 35.0944 9.08C35.121 9.02667 35.1477 8.97333 35.1744 8.92C35.201 8.84 35.241 8.74667 35.2944 8.64ZM45.9469 17.44C46.0802 17.3067 46.2269 17.1467 46.3869 16.96C46.5469 16.7733 46.7069 16.5867 46.8669 16.4C47.0535 16.2133 47.2535 16.0667 47.4669 15.96C47.7069 15.8267 47.9469 15.76 48.1869 15.76C48.5335 15.76 48.8935 15.84 49.2669 16C49.6402 16.16 49.9735 16.36 50.2669 16.6C50.5869 16.84 50.8402 17.12 51.0269 17.44C51.2402 17.7333 51.3469 18.0133 51.3469 18.28C51.3469 18.4933 51.2269 18.6 50.9869 18.6C50.6935 18.6 50.4402 18.5333 50.2269 18.4C50.0135 18.2667 49.8002 18.1333 49.5869 18C48.7069 18.5867 47.9069 19.28 47.1869 20.08C46.4669 20.8533 45.8135 21.6933 45.2269 22.6C44.6669 23.48 44.1469 24.4 43.6669 25.36C43.1869 26.32 42.7469 27.2667 42.3469 28.2C42.2135 28.4133 42.0535 28.52 41.8669 28.52C41.0935 28.52 40.4935 28.2667 40.0669 27.76C39.6402 27.2533 39.4269 26.6267 39.4269 25.88C39.4269 25 39.5735 24.0533 39.8669 23.04C40.1602 22 40.5069 21 40.9069 20.04C41.3335 19.08 41.7602 18.2 42.1869 17.4C42.6402 16.5733 43.0135 15.92 43.3069 15.44C43.4935 15.1733 43.7602 15.04 44.1069 15.04C44.5602 15.04 45.0002 15.2133 45.4269 15.56C45.8802 15.88 46.1069 16.2267 46.1069 16.6C46.1069 16.7333 46.0802 16.8667 46.0269 17C45.9735 17.1333 45.9335 17.2667 45.9069 17.4L45.9469 17.44ZM61.5469 17.52C61.7869 17.28 62.0535 16.9867 62.3469 16.64C62.6402 16.2933 62.9335 16.12 63.2269 16.12C63.4135 16.12 63.6135 16.1733 63.8269 16.28C64.0669 16.3867 64.2802 16.52 64.4669 16.68C64.6535 16.84 64.8135 17.0133 64.9469 17.2C65.0802 17.3867 65.1469 17.56 65.1469 17.72C65.1469 17.88 65.1069 18.04 65.0269 18.2C64.6269 19.2667 64.1869 20.3867 63.7069 21.56C63.2269 22.7333 62.9869 23.9067 62.9869 25.08C62.9869 25.2667 63.0269 25.44 63.1069 25.6C64.0669 24.96 64.8802 24.1733 65.5469 23.24C66.2402 22.3067 66.9469 21.3067 67.6669 20.24C67.7735 20.08 67.9335 20 68.1469 20C68.3602 20.0533 68.6002 20.1467 68.8669 20.28C69.1335 20.4133 69.2669 20.5733 69.2669 20.76C69.2669 20.92 69.2002 21.1333 69.0669 21.4C68.9602 21.6667 68.8135 21.9467 68.6269 22.24C68.4402 22.5333 68.2535 22.8133 68.0669 23.08C67.8802 23.3467 67.7335 23.56 67.6269 23.72C67.3602 24.0667 67.1202 24.4133 66.9069 24.76C66.7202 25.08 66.5069 25.4133 66.2669 25.76C66.0535 26.08 65.7869 26.4 65.4669 26.72C65.1735 27.04 64.8135 27.3333 64.3869 27.6C64.2802 27.6533 64.1335 27.68 63.9469 27.68C63.3335 27.68 62.7869 27.5333 62.3069 27.24C61.8535 26.9467 61.4535 26.5867 61.1069 26.16C60.7869 25.7067 60.5335 25.2133 60.3469 24.68C60.1602 24.1467 60.0269 23.6533 59.9469 23.2C59.7069 23.6 59.4002 24.04 59.0269 24.52C58.6535 25 58.2669 25.4533 57.8669 25.88C57.4669 26.28 57.0669 26.6267 56.6669 26.92C56.2935 27.1867 55.9602 27.32 55.6669 27.32C55.2135 27.32 54.7735 27.2133 54.3469 27C53.9202 26.76 53.5335 26.4667 53.1869 26.12C52.8669 25.7467 52.6002 25.3467 52.3869 24.92C52.1735 24.4667 52.0669 24.0267 52.0669 23.6C52.0669 22.72 52.2669 21.8133 52.6669 20.88C53.0669 19.9467 53.5735 19.0933 54.1869 18.32C54.8002 17.5467 55.4669 16.92 56.1869 16.44C56.9335 15.9333 57.6402 15.68 58.3069 15.68C58.8935 15.68 59.5069 15.88 60.1469 16.28C60.8135 16.6533 61.2802 17.0667 61.5469 17.52ZM60.1069 17.8C59.9735 17.8 59.8002 17.8667 59.5869 18C59.4002 18.1333 59.2535 18.2533 59.1469 18.36C58.3202 19.1067 57.6402 19.9467 57.1069 20.88C56.6002 21.7867 56.2002 22.7733 55.9069 23.84C55.9069 23.8667 55.8935 23.88 55.8669 23.88C55.8669 23.88 55.8669 23.8933 55.8669 23.92C55.8669 23.9733 55.8669 24.0133 55.8669 24.04C55.8935 24.04 55.9069 24.0667 55.9069 24.12C56.0935 24.0133 56.4269 23.72 56.9069 23.24C57.4135 22.7333 57.9335 22.2 58.4669 21.64C59.0002 21.0533 59.4802 20.5067 59.9069 20C60.3602 19.4667 60.6402 19.1067 60.7469 18.92C60.5602 18.7867 60.4402 18.6267 60.3869 18.44C60.3335 18.2267 60.2402 18.0133 60.1069 17.8ZM72.2763 22.04C72.5429 21.6667 72.8896 21.2133 73.3163 20.68C73.7429 20.12 74.1829 19.5867 74.6363 19.08C75.0896 18.5467 75.5296 18.1067 75.9563 17.76C76.3829 17.3867 76.7429 17.2 77.0363 17.2C77.1963 17.2 77.3829 17.2533 77.5963 17.36C77.8096 17.44 78.0096 17.56 78.1963 17.72C78.3829 17.8533 78.5429 18.0267 78.6763 18.24C78.8096 18.4267 78.8763 18.6133 78.8763 18.8C78.8763 18.96 78.8629 19.12 78.8363 19.28C78.8096 19.4133 78.7829 19.56 78.7563 19.72C78.9963 19.48 79.2363 19.2133 79.4763 18.92C79.7429 18.6 79.9963 18.3067 80.2363 18.04C80.4763 17.7467 80.7029 17.5067 80.9162 17.32C81.1563 17.1333 81.3563 17.04 81.5163 17.04C81.6229 17.04 81.7829 17.0933 81.9963 17.2C82.2363 17.3067 82.4629 17.4533 82.6763 17.64C82.9163 17.8 83.1163 18 83.2763 18.24C83.4629 18.4533 83.5563 18.6933 83.5563 18.96C83.5563 19.36 83.4763 19.8267 83.3163 20.36C83.1829 20.8667 83.0229 21.4 82.8363 21.96C82.6496 22.52 82.4629 23.0933 82.2763 23.68C82.0896 24.2667 81.9563 24.8133 81.8763 25.32C82.5163 24.68 83.1163 23.9867 83.6763 23.24C84.2363 22.4667 84.8229 21.7733 85.4363 21.16C85.5963 20.9467 85.7829 20.7067 85.9963 20.44C86.2363 20.1467 86.4363 20 86.5963 20C86.8896 20 87.1563 20.12 87.3963 20.36C87.6629 20.6 87.7963 20.76 87.7963 20.84C87.7963 21.0267 87.6896 21.2933 87.4763 21.64C87.2629 21.96 86.9963 22.3067 86.6763 22.68C86.3829 23.0533 86.0763 23.4133 85.7563 23.76C85.4629 24.1067 85.2363 24.4 85.0763 24.64C84.8096 24.9867 84.5296 25.3733 84.2363 25.8C83.9429 26.2 83.6363 26.5733 83.3163 26.92C82.9963 27.2667 82.6629 27.56 82.3163 27.8C81.9696 28.04 81.6096 28.16 81.2363 28.16C80.5163 28.16 79.8629 27.96 79.2763 27.56C78.6896 27.1333 78.3963 26.5333 78.3963 25.76C78.3963 25.4667 78.4096 25.1867 78.4363 24.92C78.4629 24.6267 78.4763 24.3333 78.4763 24.04C78.2896 24.2267 78.1163 24.44 77.9563 24.68C77.7963 24.8933 77.6363 25.1067 77.4763 25.32C77.3163 25.5067 77.1429 25.68 76.9563 25.84C76.7696 25.9733 76.5696 26.04 76.3563 26.04C76.1429 26.04 75.9163 26 75.6763 25.92C75.4363 25.84 75.2096 25.7333 74.9963 25.6C74.8096 25.4667 74.6363 25.32 74.4763 25.16C74.3429 24.9733 74.2763 24.7867 74.2763 24.6C74.2763 24.2533 74.3696 23.8533 74.5563 23.4C74.7429 22.9467 74.8363 22.5733 74.8363 22.28C74.3829 22.7333 73.9296 23.3067 73.4763 24C73.0229 24.6933 72.5829 25.3733 72.1563 26.04C71.7563 26.7067 71.3696 27.28 70.9963 27.76C70.6229 28.24 70.3029 28.48 70.0363 28.48C69.7163 28.48 69.4229 28.4133 69.1562 28.28C68.8629 28.1467 68.6096 27.9733 68.3962 27.76C68.1829 27.5467 68.0229 27.32 67.9162 27.08C67.7829 26.8133 67.7162 26.56 67.7162 26.32C67.7162 25.3333 67.8896 24.2533 68.2362 23.08C68.5829 21.9067 68.9962 20.8133 69.4763 19.8C69.9829 18.76 70.4896 17.8933 70.9963 17.2C71.5029 16.5067 71.9163 16.16 72.2363 16.16C72.3696 16.16 72.5296 16.2 72.7163 16.28C72.9029 16.36 73.0763 16.4667 73.2363 16.6C73.4229 16.7067 73.5696 16.84 73.6763 17C73.8096 17.1333 73.8763 17.28 73.8763 17.44C73.8763 17.68 73.7829 18.0133 73.5963 18.44C73.4363 18.8667 73.2896 19.2267 73.1563 19.52C73.0229 19.92 72.8763 20.3467 72.7163 20.8C72.5563 21.2267 72.3963 21.6267 72.2363 22L72.2763 22.04ZM92.3197 19.52C92.373 19.4667 92.453 19.36 92.5597 19.2C92.7997 18.7733 93.093 18.3067 93.4397 17.8C93.7864 17.2667 94.1464 16.7867 94.5197 16.36C94.9197 15.9067 95.3197 15.5333 95.7197 15.24C96.1464 14.92 96.573 14.76 96.9997 14.76C97.4797 14.76 97.933 14.8667 98.3597 15.08C98.7864 15.2667 99.1597 15.52 99.4797 15.84C99.7997 16.16 100.04 16.5333 100.2 16.96C100.386 17.36 100.48 17.7867 100.48 18.24C100.48 19.0133 100.36 19.8667 100.12 20.8C99.8797 21.7067 99.533 22.56 99.0797 23.36C98.653 24.16 98.1197 24.84 97.4797 25.4C96.8664 25.9333 96.1864 26.2 95.4397 26.2C94.8264 26.2 94.1997 26.04 93.5597 25.72C92.9197 25.3733 92.4397 24.92 92.1197 24.36C91.4264 25.7733 90.773 27.2133 90.1597 28.68C89.573 30.12 89.0264 31.6 88.5197 33.12C88.413 33.4133 88.293 33.72 88.1597 34.04C88.053 34.3867 87.853 34.56 87.5597 34.56C87.0797 34.56 86.613 34.4133 86.1597 34.12C85.6797 33.8267 85.4397 33.4667 85.4397 33.04C85.4397 31.4667 85.573 29.92 85.8397 28.4C86.0797 26.8533 86.4264 25.3333 86.8797 23.84C87.3064 22.3467 87.813 20.8933 88.3997 19.48C89.013 18.04 89.653 16.64 90.3197 15.28C90.533 14.8267 90.7464 14.4533 90.9597 14.16C91.173 13.84 91.5864 13.68 92.1997 13.68C92.5197 13.68 92.853 13.7467 93.1997 13.88C93.5464 14.0133 93.7197 14.2 93.7197 14.44C93.7197 14.76 93.653 15.1333 93.5197 15.56C93.413 15.9867 93.2797 16.4267 93.1197 16.88C92.9597 17.3333 92.7997 17.7867 92.6397 18.24C92.4797 18.6933 92.3464 19.12 92.2397 19.52H92.3197ZM94.0797 24.24C94.5864 23.9733 95.0397 23.5333 95.4397 22.92C95.8397 22.28 96.173 21.5867 96.4397 20.84C96.7064 20.0933 96.9197 19.3733 97.0797 18.68C97.2397 17.96 97.3464 17.4 97.3997 17C97.3197 17 97.2397 17.0267 97.1597 17.08C97.1064 17.1333 97.0397 17.1867 96.9597 17.24C96.2397 17.8533 95.5997 18.5467 95.0397 19.32C94.5064 20.0667 94.013 20.8533 93.5597 21.68C93.533 21.7333 93.5197 21.8267 93.5197 21.96C93.5997 22.3867 93.6664 22.7867 93.7197 23.16C93.7997 23.5067 93.9197 23.8667 94.0797 24.24ZM113.513 20.64C113.513 21.3333 113.339 22.08 112.993 22.88C112.673 23.68 112.246 24.4267 111.713 25.12C111.206 25.7867 110.633 26.36 109.993 26.84C109.379 27.2933 108.779 27.52 108.193 27.52C107.499 27.52 106.833 27.3733 106.193 27.08C105.553 26.76 104.979 26.36 104.473 25.88C103.993 25.3733 103.606 24.8267 103.312 24.24C102.992 23.6533 102.832 23.08 102.832 22.52C102.832 21.64 103.019 20.7867 103.393 19.96C103.793 19.1067 104.273 18.36 104.833 17.72C105.393 17.0533 105.993 16.52 106.633 16.12C107.273 15.72 107.846 15.52 108.353 15.52C108.699 15.52 108.979 15.5733 109.192 15.68C109.406 15.76 109.606 15.8667 109.793 16C110.006 16.1333 110.219 16.3067 110.433 16.52C110.673 16.7067 110.953 16.8933 111.273 17.08C111.806 17.4267 112.313 17.8933 112.793 18.48C113.273 19.04 113.513 19.64 113.513 20.28V20.64ZM111.273 18.44C111.059 18.3333 110.819 18.2267 110.553 18.12C110.286 17.9867 110.126 17.92 110.073 17.92C109.566 17.92 109.086 18.1733 108.633 18.68C108.206 19.16 107.819 19.7333 107.473 20.4C107.153 21.04 106.886 21.68 106.673 22.32C106.486 22.9333 106.393 23.3733 106.393 23.64C106.393 23.9067 106.393 24.16 106.393 24.4C106.393 24.64 106.459 24.88 106.593 25.12C107.099 24.9867 107.633 24.68 108.193 24.2C108.753 23.6933 109.259 23.1333 109.713 22.52C110.166 21.88 110.539 21.2267 110.833 20.56C111.153 19.8933 111.313 19.3067 111.313 18.8C111.313 18.64 111.299 18.52 111.273 18.44Z" fill="white"/>
</svg>
