<svg width="1440" height="568" viewBox="0 0 1440 568" fill="none" xmlns="http://www.w3.org/2000/svg">
<path d="M0 0H1440V535.921C1440 554 1424.13 567.971 1406.2 565.679L1165.18 534.871C1148.79 532.776 1132.2 532.72 1115.8 534.704L858.47 565.831C835.661 568.59 812.546 567.398 790.142 562.307L699.172 541.639C670.413 535.105 640.566 535.012 611.767 541.366L520.638 561.474C495.126 567.104 468.76 567.68 443.027 563.171L295.062 537.246C274.154 533.583 252.796 533.272 231.79 536.324L34.3134 565.015C16.2181 567.644 0 553.612 0 535.326V0Z" fill="#E9F1F9"/>
</svg>
