<svg width="1440" height="667" viewBox="0 0 1440 667" fill="none" xmlns="http://www.w3.org/2000/svg">
<path d="M0 0H1440V635.156C1440 653.5 1423.68 667.548 1405.54 664.823L1169.42 629.345C1150.24 626.464 1130.75 626.387 1111.55 629.116L864.366 664.261C837.729 668.048 810.602 666.422 784.609 659.48L706.36 638.583C673.021 629.679 637.946 629.553 604.544 638.216L527.011 658.326C497.399 666.006 466.419 666.791 436.456 660.62L300.387 632.597C276.01 627.576 250.91 627.15 226.376 631.34L35.0502 664.014C16.7287 667.143 0 653.029 0 634.442V0Z" fill="#E9F1F9"/>
</svg>
