<svg width="570" height="505" viewBox="0 0 570 505" fill="none" xmlns="http://www.w3.org/2000/svg">
<g clip-path="url(#clip0)">
<path opacity="0.1" d="M255.358 195.295C233.081 188.089 209.527 182.048 185.454 182.671C150.064 183.589 116.038 200.072 99.2555 224.432C85.0699 245.075 83.1765 269.337 76.9842 292.292C69.3548 320.572 54.8732 347.41 39.4172 373.657C31.1155 387.754 22.3575 402.147 20.9143 417.637C18.9344 439.143 31.9728 460.643 52.5295 475.055C73.0862 489.466 100.44 497.146 127.923 498.94C142.546 499.889 157.83 499.156 170.849 493.892C184.622 488.344 194.693 478.192 208.521 472.706C221.338 467.627 236.276 466.974 250.652 467.719C269.271 468.661 287.711 471.818 305.581 477.126C325.62 483.117 344.24 491.741 364.235 497.818C384.231 503.896 406.582 507.336 427.071 502.447C446.308 497.861 461.567 486.557 475.327 475.104C497.501 456.695 518.119 436.491 536.972 414.697C549.4 400.279 560.977 385.054 566.528 368.208C577.13 335.994 562.926 299.522 531.144 277.338C504.814 258.95 469.394 250.832 434.707 245.901C403.073 241.358 366.474 240.908 337.4 229.338C309.67 218.274 284.445 204.701 255.358 195.295Z" fill="#4585E5"/>
<path opacity="0.1" d="M539.328 305.07C547.2 305.07 553.582 304.195 553.582 303.116C553.582 302.036 547.2 301.162 539.328 301.162C531.456 301.162 525.075 302.036 525.075 303.116C525.075 304.195 531.456 305.07 539.328 305.07Z" fill="#4585E5"/>
<path opacity="0.1" d="M484.726 310.605C492.598 310.605 498.98 309.73 498.98 308.651C498.98 307.572 492.598 306.697 484.726 306.697C476.854 306.697 470.473 307.572 470.473 308.651C470.473 309.73 476.854 310.605 484.726 310.605Z" fill="#4585E5"/>
<path opacity="0.1" d="M420.41 303.116C428.282 303.116 434.664 302.241 434.664 301.162C434.664 300.082 428.282 299.208 420.41 299.208C412.538 299.208 406.157 300.082 406.157 301.162C406.157 302.241 412.538 303.116 420.41 303.116Z" fill="#4585E5"/>
<path opacity="0.1" d="M506.578 325.799C512.175 325.799 516.712 325.175 516.712 324.406C516.712 323.637 512.175 323.013 506.578 323.013C500.982 323.013 496.445 323.637 496.445 324.406C496.445 325.175 500.982 325.799 506.578 325.799Z" fill="#4585E5"/>
<path opacity="0.1" d="M449.91 324.406C455.506 324.406 460.043 323.782 460.043 323.013C460.043 322.244 455.506 321.62 449.91 321.62C444.313 321.62 439.777 322.244 439.777 323.013C439.777 323.782 444.313 324.406 449.91 324.406Z" fill="#4585E5"/>
<path d="M484.418 308.207C484.418 308.207 504.413 242.708 481.291 216.474C464.022 196.848 444.359 199.215 435.57 201.625C433.295 202.23 431.179 203.322 429.369 204.826C427.558 206.33 426.097 208.21 425.085 210.335C422.002 216.961 422.569 227.717 444.267 240.273C480.6 261.299 482.864 290.14 482.864 290.14L484.418 308.207Z" fill="#4585E5"/>
<path d="M438.697 210.914C438.697 210.914 497.635 229.332 484.418 308.207" stroke="#565987" stroke-miterlimit="10"/>
<path d="M473.113 217.516C473.113 217.516 464.996 222.983 467.562 231.194" stroke="#565987" stroke-miterlimit="10"/>
<path d="M444.612 222.379C444.612 222.379 449.546 217.337 455.609 220.117" stroke="#565987" stroke-miterlimit="10"/>
<path d="M467.907 247.744C467.907 247.744 476.616 243.331 478.867 248.86" stroke="#565987" stroke-miterlimit="10"/>
<path d="M489.463 256.953C489.463 256.953 482.919 256.435 482.802 259.561" stroke="#565987" stroke-miterlimit="10"/>
<path d="M485.226 308.731C485.226 308.731 461.789 261.126 455.381 262.168C452.297 262.661 450.915 265.669 450.28 268.683C449.491 272.585 449.937 276.635 451.557 280.272C454.881 287.89 463.806 302.357 485.226 308.731Z" fill="#4585E5"/>
<path d="M455.553 271.204C455.553 271.204 480.131 306.82 484.88 308.386" stroke="#565987" stroke-miterlimit="10"/>
<path d="M453.296 276.764H459.032" stroke="#565987" stroke-miterlimit="10"/>
<path d="M460.167 289.795L469.159 290.177" stroke="#565987" stroke-miterlimit="10"/>
<path d="M465.638 279.372L464.663 284.05" stroke="#565987" stroke-miterlimit="10"/>
<path d="M475.197 293.617L475.025 297.87" stroke="#565987" stroke-miterlimit="10"/>
<path d="M484.535 308.731C484.535 308.731 507.972 261.126 514.38 262.168C517.464 262.661 518.845 265.669 519.481 268.683C520.27 272.585 519.824 276.635 518.204 280.272C514.88 287.89 505.955 302.357 484.535 308.731Z" fill="#4585E5"/>
<path d="M514.208 271.204C514.208 271.204 489.63 306.82 484.881 308.386" stroke="#565987" stroke-miterlimit="10"/>
<path d="M516.465 276.764H510.729" stroke="#565987" stroke-miterlimit="10"/>
<path d="M509.594 289.795L500.602 290.177" stroke="#565987" stroke-miterlimit="10"/>
<path d="M504.124 279.372L505.098 284.05" stroke="#565987" stroke-miterlimit="10"/>
<path d="M494.557 293.617L494.736 297.87" stroke="#565987" stroke-miterlimit="10"/>
<path d="M444.328 319.851C443.693 319.33 443.228 318.63 442.996 317.841C442.893 317.444 442.929 317.024 443.099 316.651C443.268 316.277 443.561 315.973 443.927 315.789C444.785 315.462 445.698 316.054 446.394 316.658C447.091 317.262 447.881 317.934 448.788 317.811C448.322 317.388 447.974 316.851 447.777 316.254C447.58 315.657 447.542 315.019 447.665 314.402C447.703 314.146 447.809 313.905 447.973 313.705C448.448 313.2 449.312 313.422 449.879 313.816C451.686 315.092 452.192 317.545 452.204 319.752C452.293 318.933 452.293 318.106 452.204 317.287C452.169 316.878 452.234 316.468 452.395 316.091C452.555 315.713 452.805 315.381 453.123 315.123C453.552 314.888 454.035 314.773 454.523 314.79C454.927 314.733 455.338 314.761 455.73 314.872C456.122 314.984 456.486 315.176 456.799 315.437C457.484 316.177 457.305 317.416 456.707 318.23C456.034 318.975 455.239 319.6 454.357 320.079C453.681 320.478 453.105 321.026 452.673 321.681C452.625 321.773 452.583 321.867 452.55 321.965H447.455C446.323 321.404 445.271 320.693 444.328 319.851Z" fill="#4585E5"/>
<path d="M533.555 300.675C532.917 300.156 532.452 299.455 532.223 298.665C532.121 298.269 532.157 297.85 532.327 297.477C532.496 297.105 532.788 296.802 533.154 296.619C534.012 296.292 534.925 296.884 535.621 297.482C536.318 298.08 537.114 298.764 538.021 298.634C537.553 298.213 537.203 297.677 537.005 297.079C536.807 296.482 536.768 295.843 536.892 295.226C536.929 294.97 537.038 294.731 537.207 294.535C537.681 294.03 538.539 294.246 539.106 294.646C540.913 295.916 541.419 298.345 541.431 300.582C541.522 299.763 541.522 298.936 541.431 298.117C541.396 297.708 541.461 297.298 541.622 296.921C541.782 296.543 542.032 296.211 542.35 295.953C542.781 295.724 543.263 295.612 543.75 295.626C544.152 295.563 544.562 295.585 544.954 295.692C545.346 295.798 545.712 295.986 546.026 296.243C546.717 296.976 546.538 298.215 545.934 299.029C545.265 299.788 544.47 300.427 543.584 300.915C542.908 301.315 542.332 301.863 541.9 302.518C541.849 302.608 541.808 302.703 541.777 302.801H536.682C535.55 302.235 534.498 301.52 533.555 300.675Z" fill="#4585E5"/>
<path d="M503.815 319.851C503.179 319.33 502.715 318.63 502.483 317.841C502.38 317.444 502.416 317.024 502.586 316.651C502.755 316.277 503.048 315.973 503.414 315.789C504.272 315.462 505.184 316.054 505.881 316.658C506.578 317.262 507.368 317.934 508.274 317.811C507.808 317.388 507.459 316.852 507.262 316.255C507.064 315.657 507.024 315.019 507.146 314.402C507.189 314.146 507.297 313.906 507.46 313.705C507.935 313.2 508.799 313.422 509.366 313.816C511.173 315.092 511.679 317.545 511.691 319.752C511.79 318.934 511.8 318.107 511.722 317.287C511.687 316.878 511.752 316.468 511.912 316.091C512.073 315.713 512.323 315.381 512.641 315.123C513.069 314.888 513.553 314.773 514.041 314.79C514.445 314.733 514.856 314.761 515.248 314.872C515.64 314.984 516.004 315.176 516.317 315.437C517.002 316.177 516.823 317.416 516.224 318.23C515.552 318.975 514.757 319.6 513.875 320.079C513.199 320.478 512.623 321.026 512.191 321.681C512.142 321.773 512.101 321.867 512.067 321.965H506.973C505.83 321.406 504.767 320.695 503.815 319.851Z" fill="#4585E5"/>
<path d="M419.485 281.091C419.485 281.091 417.573 283.588 420.367 287.354C423.161 291.12 425.455 294.307 424.53 296.656C424.53 296.656 420.318 289.659 416.889 289.561C413.46 289.462 415.711 285.301 419.485 281.091Z" fill="#4585E5"/>
<path opacity="0.1" d="M419.485 281.091C419.316 281.332 419.183 281.596 419.091 281.874C415.748 285.801 413.965 289.468 417.179 289.561C420.176 289.647 423.772 294.997 424.629 296.341C424.629 296.446 424.567 296.551 424.53 296.649C424.53 296.649 420.318 289.653 416.889 289.555C413.46 289.456 415.711 285.301 419.485 281.091Z" fill="black"/>
<path d="M415.933 284.272C415.933 285.154 416.031 285.862 416.155 285.862C416.278 285.862 416.37 285.154 416.37 284.272C416.37 283.391 416.247 283.81 416.13 283.81C416.013 283.81 415.933 283.397 415.933 284.272Z" fill="#FFD037"/>
<path d="M414.711 285.32C415.482 285.745 416.161 285.998 416.216 285.893C416.272 285.789 415.698 285.357 414.927 284.938C414.156 284.519 414.458 284.821 414.397 284.938C414.335 285.055 413.94 284.901 414.711 285.32Z" fill="#FFD037"/>
<path d="M429.569 281.091C429.569 281.091 431.481 283.588 428.687 287.354C425.893 291.12 423.599 294.307 424.53 296.656C424.53 296.656 428.737 289.659 432.166 289.561C435.595 289.462 433.344 285.301 429.569 281.091Z" fill="#4585E5"/>
<path opacity="0.1" d="M429.569 281.091C429.738 281.332 429.871 281.596 429.964 281.874C433.307 285.801 435.089 289.468 431.876 289.561C428.878 289.647 425.283 294.997 424.425 296.341C424.454 296.446 424.489 296.549 424.53 296.649C424.53 296.649 428.737 289.653 432.166 289.555C435.595 289.456 433.344 285.301 429.569 281.091Z" fill="black"/>
<path d="M433.122 284.272C433.122 285.154 433.023 285.862 432.9 285.862C432.776 285.862 432.684 285.154 432.684 284.272C432.684 283.391 432.807 283.81 432.924 283.81C433.042 283.81 433.122 283.397 433.122 284.272Z" fill="#FFD037"/>
<path d="M434.343 285.32C433.572 285.745 432.894 285.998 432.838 285.893C432.783 285.789 433.356 285.357 434.127 284.938C434.898 284.519 434.596 284.821 434.658 284.938C434.719 285.055 435.114 284.901 434.343 285.32Z" fill="#FFD037"/>
<path d="M432.511 296.329C432.511 296.329 427.176 296.169 425.567 295.022C423.957 293.876 417.351 292.507 416.932 294.344C416.512 296.181 408.914 303.479 414.934 303.529C420.953 303.578 428.946 302.592 430.55 301.612C432.154 300.632 432.511 296.329 432.511 296.329Z" fill="#A8A8A8"/>
<path opacity="0.2" d="M414.847 302.887C420.873 302.937 428.854 301.951 430.464 300.97C431.697 300.231 432.172 297.556 432.314 296.323H432.487C432.487 296.323 432.154 300.638 430.544 301.605C428.934 302.573 420.959 303.572 414.927 303.522C413.188 303.522 412.59 302.906 412.621 301.975C412.886 302.536 413.552 302.881 414.847 302.887Z" fill="black"/>
<path opacity="0.1" d="M79.5563 50.6373C86.9241 50.6373 92.8969 44.6681 92.8969 37.3046C92.8969 29.9411 86.9241 23.9718 79.5563 23.9718C72.1885 23.9718 66.2157 29.9411 66.2157 37.3046C66.2157 44.6681 72.1885 50.6373 79.5563 50.6373Z" fill="#4585E5"/>
<path opacity="0.1" d="M310.294 29.5935C317.661 29.5935 323.634 23.6242 323.634 16.2607C323.634 8.8972 317.661 2.92792 310.294 2.92792C302.926 2.92792 296.953 8.8972 296.953 16.2607C296.953 23.6242 302.926 29.5935 310.294 29.5935Z" fill="#4585E5"/>
<path opacity="0.1" d="M521.936 82.2649C529.304 82.2649 535.276 76.2957 535.276 68.9322C535.276 61.5687 529.304 55.5994 521.936 55.5994C514.568 55.5994 508.595 61.5687 508.595 68.9322C508.595 76.2957 514.568 82.2649 521.936 82.2649Z" fill="#4585E5"/>
<path opacity="0.1" d="M22.3577 181.9C34.7055 181.9 44.7153 171.896 44.7153 159.556C44.7153 147.215 34.7055 137.211 22.3577 137.211C10.0099 137.211 0 147.215 0 159.556C0 171.896 10.0099 181.9 22.3577 181.9Z" fill="#4585E5"/>
<path opacity="0.1" d="M43.7902 292.236C56.138 292.236 66.1479 282.232 66.1479 269.892C66.1479 257.551 56.138 247.547 43.7902 247.547C31.4424 247.547 21.4326 257.551 21.4326 269.892C21.4326 282.232 31.4424 292.236 43.7902 292.236Z" fill="#4585E5"/>
<path opacity="0.1" d="M462.523 194.912C474.871 194.912 484.881 184.908 484.881 172.568C484.881 160.227 474.871 150.223 462.523 150.223C450.175 150.223 440.165 160.227 440.165 172.568C440.165 184.908 450.175 194.912 462.523 194.912Z" fill="#4585E5"/>
<path d="M277.642 214.409C276.853 214.483 276.051 214.446 275.268 214.569C273.953 214.831 272.698 215.335 271.567 216.055C265.954 219.248 260.656 223.637 258.331 229.653C258.14 230.023 258.079 230.446 258.159 230.855C258.296 231.192 258.522 231.485 258.812 231.705L260.996 233.69C261.272 233.977 261.601 234.207 261.964 234.368C262.553 234.522 263.174 234.503 263.753 234.313C269.754 232.938 276.131 231.354 280.344 226.867C282.342 224.74 284.186 221.812 287.128 221.732C288.361 221.732 289.515 222.207 290.73 222.348C291.945 222.49 293.407 221.972 293.696 220.789C293.79 220.2 293.722 219.597 293.499 219.045L291.686 213.01C291.192 211.358 286.215 211.272 284.556 211.568C282.027 212.005 280.325 214.163 277.642 214.409Z" fill="#65617D"/>
<path d="M299.007 248.404C298.92 250.469 299.087 252.558 298.748 254.605C298.449 256.218 297.933 257.784 297.212 259.259C296.103 261.63 294.693 263.848 293.018 265.86C291.457 267.709 289.589 269.448 287.276 270.175C284.963 270.902 282.12 270.378 280.676 268.431C279.498 266.846 279.443 264.732 279.529 262.754C279.739 257.89 280.504 252.959 282.687 248.607C283.625 246.758 284.815 244.995 285.771 243.127C287.769 239.25 288.91 234.652 292.358 231.977C294.521 232.975 296.834 233.611 299.204 233.857C300.123 233.955 302.75 234.017 303.059 235.194C303.269 235.989 301.542 238.215 301.209 238.997C299.892 241.968 299.145 245.158 299.007 248.404Z" fill="#65617D"/>
<path d="M274.558 159.506C275.298 161.393 276.236 163.242 276.409 165.251C276.532 166.484 276.409 167.717 276.409 168.95C276.512 170.639 276.794 172.312 277.247 173.942L280.683 187.996C281.195 190.098 281.707 192.256 281.441 194.401C281.262 195.831 280.744 197.218 280.751 198.654C280.816 199.743 280.99 200.823 281.269 201.878C281.919 205.137 281.741 208.506 280.751 211.679C280.649 211.918 280.613 212.179 280.646 212.437C280.732 212.837 281.121 213.084 281.472 213.275C285.171 215.297 289.202 216.64 293.376 217.238C297.142 208.283 299.774 198.892 301.209 189.285C302.084 183.466 302.51 177.573 303.632 171.797C303.658 171.464 303.8 171.15 304.033 170.91C304.453 170.558 305.088 170.78 305.581 171.015C311.884 174.044 317.948 177.547 323.72 181.493C325.75 178.866 327.177 175.826 327.901 172.587C328.625 169.347 328.627 165.989 327.908 162.749C327.183 159.955 326.149 157.251 324.824 154.686C323.413 151.566 321.655 148.616 319.582 145.89C315.005 140.157 308.295 136.496 301.387 134.012C297.187 132.496 292.864 131.374 288.546 130.227C286.129 129.58 282.077 127.472 279.727 129.112C277.26 130.819 275.619 135.054 274.608 137.741C273.359 141.075 272.679 144.594 272.597 148.152C272.495 152.029 273.162 155.888 274.558 159.506Z" fill="#3F3D56"/>
<path d="M324.14 176.451C322.851 177.857 323.936 180.1 323.69 181.999C323.528 182.856 323.222 183.679 322.783 184.434L316.881 196.016C315.894 197.754 315.155 199.621 314.685 201.563C313.877 205.743 315.536 210.44 313.414 214.132C312.73 215.321 311.669 216.345 311.385 217.688C311.176 218.669 311.385 219.692 311.28 220.684C311.139 221.849 310.516 222.897 310.17 224.019C309.901 225.097 309.709 226.193 309.597 227.298C308.848 232.012 306.378 236.281 302.664 239.281C300.536 241.084 297.803 242.013 295.016 241.882C292.266 241.648 289.533 239.78 288.972 237.08C288.781 236.162 288.818 235.139 288.244 234.393C287.43 233.327 285.716 233.283 284.932 232.192L287.967 227.2C288.91 225.652 289.873 224.037 290.027 222.231C290.212 220.018 289.145 217.812 289.527 215.624C289.854 213.743 291.205 212.178 291.612 210.316C292.118 208.005 291.106 205.669 290.557 203.363C289.213 197.686 290.717 191.769 292.216 186.104C294.208 178.609 296.25 170.996 300.283 164.37C308.332 168.703 315.733 172.864 324.14 176.451Z" fill="#3F3D56"/>
<path d="M324.214 59.0389C324.695 60.3457 324.436 61.7942 324.343 63.1811C324.127 66.2632 324.781 69.3452 324.633 72.4703C324.485 75.5955 323.523 78.5789 322.857 81.6177C320.963 90.2905 321.42 99.3269 319.705 108.037C317.59 118.824 312.181 128.871 311.114 139.818C310.775 143.295 310.818 147.018 308.912 149.952C297.587 144.97 286.882 138.685 277.013 131.226C279.184 115.131 281.33 98.9571 281.04 82.7211C280.9 80.7638 281.037 78.7965 281.447 76.8776C281.962 75.2657 282.701 73.7343 283.643 72.3285C286.03 68.4514 288.657 64.7283 291.279 61.0114C292.956 58.6321 294.769 56.1357 297.446 55.02C300.123 53.9043 303.293 54.4036 306.21 54.9337C309.722 55.5747 313.229 56.2158 316.732 56.8569C318.922 57.2575 323.276 56.4932 324.214 59.0389Z" fill="#4585E5"/>
<path d="M239.76 120.71C238.322 119.271 236.752 117.969 235.073 116.82C237.262 114.158 236.831 110.305 237.367 106.896C237.807 104.682 238.474 102.52 239.359 100.443C239.581 99.8571 239.896 99.2099 240.507 99.0558C240.882 99.0094 241.262 99.0692 241.604 99.2284C243.455 99.8818 247.316 99.8448 248.753 101.041C250.486 102.495 248.901 105.54 248.247 107.359C247.784 108.579 240.679 121.635 239.76 120.71Z" fill="#BE6F72"/>
<path d="M245.132 235.823C246.061 237.326 246.668 239.005 246.915 240.754C247.063 242.505 246.421 244.422 244.929 245.346C243.436 246.271 241.296 245.963 239.52 245.408C235.752 244.183 232.286 242.178 229.347 239.522C226.408 236.867 224.064 233.621 222.466 229.998C221.905 228.704 221.418 227.329 220.425 226.33C219.687 225.682 218.868 225.133 217.989 224.697C215.565 223.328 213.227 221.529 212.105 218.977C210.982 216.425 211.488 213.016 213.813 211.5C214.538 211.081 215.339 210.811 216.169 210.705C216.999 210.6 217.842 210.66 218.649 210.883C220.256 211.34 221.795 212.009 223.225 212.874C225.618 214.175 228.541 215.297 230.626 217.029C232.476 218.551 234.136 220.61 235.714 222.404C237.523 224.468 239.217 226.628 240.79 228.876C241.296 229.536 245.558 235.225 245.132 235.823Z" fill="#65617D"/>
<path d="M199.924 222.885C199.714 225.986 199.166 229.056 198.289 232.038C197.79 233.715 197.13 235.459 195.742 236.526C194.568 237.286 193.238 237.773 191.85 237.95C191.366 238.081 190.86 238.112 190.364 238.042C189.513 237.863 188.908 237.13 188.384 236.433C186.324 233.709 184.32 230.83 183.45 227.526C182.216 222.737 183.45 217.602 185.59 213.127C186.359 211.323 187.481 209.691 188.89 208.325C190.63 206.896 192.721 205.957 194.946 205.607C197.222 205.151 200.016 204.177 200.183 206.945C200.426 212.258 200.34 217.582 199.924 222.885Z" fill="#65617D"/>
<path d="M234.049 107.026C238.305 109.226 243.029 112.025 243.917 116.728C244.466 119.6 243.412 122.541 243.584 125.462C243.739 128.033 244.818 130.517 244.682 133.081C244.538 134.293 244.332 135.496 244.066 136.687C243.702 138.962 243.917 141.279 243.825 143.578C243.621 148.756 241.888 153.737 241.05 158.847C240.456 162.495 240.317 166.204 240.636 169.886C240.84 172.266 241.253 174.633 241.253 177.024C241.253 178.747 241.111 180.466 240.828 182.165C240.001 187.503 238.336 192.677 235.893 197.495C232.927 203.332 233.346 210.865 233.661 217.405C233.798 218.306 233.683 219.228 233.328 220.068C232.551 221.479 230.614 221.683 229.01 221.547C223.064 221.004 217.549 218.213 213.591 213.743C213.014 213.182 212.622 212.457 212.469 211.666C212.333 210.347 213.394 209.262 214.159 208.171C216.761 204.473 216.101 199.461 216.41 194.919C216.635 191.613 217.426 188.371 218.747 185.334C219.512 183.577 220.468 181.845 220.641 179.934C220.801 178.152 220.258 176.39 219.722 174.688L217.872 168.82C215.004 159.704 212.117 150.531 207.775 142.019C204.926 143.871 202.887 146.735 202.07 150.032C200.454 155.839 202.755 162.323 200.553 167.908C200.188 168.682 199.885 169.484 199.646 170.306C199.517 171.015 199.467 171.737 199.498 172.457C199.555 178.465 199.922 184.467 200.596 190.437C200.629 191.342 200.883 192.224 201.336 193.008C201.7 193.532 202.23 193.92 202.619 194.419C203.698 195.819 203.495 197.779 203.236 199.523L202.002 207.771C201.98 208.189 201.841 208.592 201.601 208.936C201.31 209.217 200.948 209.413 200.553 209.503C196.634 210.719 192.502 211.097 188.427 210.612C187.225 210.47 186.133 209.663 185.128 208.985C185.023 207.752 186.559 206.932 186.614 205.706C186.554 204.979 186.216 204.303 185.67 203.819C183.376 201.231 180.638 198.481 180.662 195.023C180.662 194.117 180.878 193.211 180.847 192.305C180.767 189.981 179.163 187.99 178.602 185.753C177.911 182.985 178.83 180.113 179.182 177.283C179.663 173.474 179.096 169.615 178.565 165.812L176.499 151.857C176.259 149.691 175.83 147.55 175.216 145.458C174.438 143.399 173.526 141.394 172.484 139.455C170.51 135.448 168.888 131.281 167.272 127.127C166.759 125.998 166.436 124.792 166.316 123.558C166.224 121.443 167.315 119.446 168.672 117.819C171.214 114.795 174.682 112.693 178.541 111.84C179.185 111.66 179.863 111.633 180.52 111.76C181.073 111.943 181.592 112.216 182.056 112.567C186.824 115.684 192.249 117.655 197.906 118.325C203.564 118.996 209.3 118.348 214.664 116.432C215.281 116.901 216.422 116.697 217.131 116.364C219.111 115.458 220.727 113.948 222.466 112.666C225.704 110.213 230.071 107.883 234.049 107.026Z" fill="#3F3D56"/>
<path d="M106.213 265.324C106.54 266.268 107.033 267.147 107.668 267.919C109.901 270.828 113.016 273.152 114.453 276.549C114.755 277.276 114.977 278.04 115.255 278.78C116.099 281.012 117.475 283.006 119.263 284.586C120.628 285.718 122.111 286.7 123.686 287.514C126.412 289 129.36 290.344 132.456 290.263C133.079 290.25 133.698 290.176 134.306 290.042C135.27 289.842 136.199 289.501 137.063 289.031C139.055 287.934 140.764 285.788 140.369 283.551C140.289 283.124 140.155 282.71 139.968 282.318C139.641 281.695 139.264 281.099 138.84 280.537C137.797 279.094 136.724 277.615 135.201 276.69C133.486 275.643 131.327 275.384 129.785 274.089C129.177 273.539 128.651 272.904 128.225 272.203C126.828 270.056 125.786 267.698 125.141 265.219C124.672 263.37 124.358 261.342 123.007 259.986C121.657 258.63 119.8 258.322 117.999 258.013C117.391 257.888 116.77 257.828 116.149 257.835C115.267 257.866 114.354 258.118 113.528 257.705C112.701 257.292 112.424 256.707 111.424 256.787C110.629 256.894 109.879 257.221 109.26 257.73C106.916 259.462 105.362 262.544 106.213 265.324Z" fill="#3F3D56"/>
<path d="M128.126 268.129C128.527 270.218 129.144 272.443 130.76 273.806C131.79 274.693 133.227 275.248 133.739 276.499C134.251 277.751 133.591 279.322 132.74 280.469C131.653 281.919 130.306 283.154 128.768 284.112C127.46 284.919 125.9 285.536 124.401 285.178C123.168 284.889 122.193 284.001 121.274 283.144C119.165 281.19 117.006 279.162 115.822 276.543C114.588 273.781 114.527 270.582 113.182 267.864C112.399 266.279 111.19 264.892 110.715 263.191C110.502 262.576 110.502 261.908 110.715 261.293C110.945 260.853 111.293 260.485 111.72 260.232C112.147 259.978 112.636 259.848 113.133 259.856C114.126 259.89 115.105 260.098 116.026 260.473C118.81 261.465 121.66 262.262 124.555 262.858C125.709 263.074 126.406 263.068 127.022 264.184C127.592 265.434 127.965 266.764 128.126 268.129Z" fill="#FBBEBE"/>
<path d="M135.281 285.795C134.824 286.494 134.5 287.271 134.325 288.088C134.179 288.723 134.156 289.38 134.257 290.023C135.221 289.824 136.15 289.483 137.014 289.012C139.006 287.915 140.715 285.77 140.32 283.533C140.24 283.106 140.105 282.692 139.919 282.3C139.625 282.234 139.318 282.246 139.03 282.336C138.742 282.426 138.483 282.59 138.278 282.811C137.13 283.644 136.119 284.65 135.281 285.795Z" fill="#FBBEBE"/>
<path d="M113.176 238.96C112.908 239.538 112.828 240.185 112.948 240.81C113.232 242.042 114.496 242.751 115.637 243.312L126.486 248.613C127.238 248.961 127.971 249.35 128.682 249.778C130.532 250.912 131.987 252.515 133.566 253.982C135.145 255.449 136.903 256.824 138.994 257.341C141.081 257.799 143.262 257.513 145.161 256.534C146.185 256.024 147.135 255.38 147.986 254.617C148.723 253.971 149.404 253.264 150.021 252.503C150.552 251.943 150.932 251.258 151.126 250.512C151.329 249.384 150.768 248.274 150.114 247.343C149.738 246.807 149.325 246.296 148.88 245.815C144.767 241.272 138.025 238.917 132.228 237.993C129.921 237.623 127.732 236.76 125.511 236.057C123.291 235.354 120.941 234.824 118.634 235.151C116.328 235.478 114.058 236.803 113.176 238.96Z" fill="#3F3D56"/>
<path opacity="0.1" d="M113.176 238.96C112.908 239.538 112.828 240.185 112.948 240.81C113.232 242.042 114.496 242.751 115.637 243.312L126.486 248.613C127.238 248.961 127.971 249.35 128.682 249.778C130.532 250.912 131.987 252.515 133.566 253.982C135.145 255.449 136.903 256.824 138.994 257.341C141.081 257.799 143.262 257.513 145.161 256.534C146.185 256.024 147.135 255.38 147.986 254.617C148.723 253.971 149.404 253.264 150.021 252.503C150.552 251.943 150.932 251.258 151.126 250.512C151.329 249.384 150.768 248.274 150.114 247.343C149.738 246.807 149.325 246.296 148.88 245.815C144.767 241.272 138.025 238.917 132.228 237.993C129.921 237.623 127.732 236.76 125.511 236.057C123.291 235.354 120.941 234.824 118.634 235.151C116.328 235.478 114.058 236.803 113.176 238.96Z" fill="black"/>
<path d="M140.326 242.344C141.16 243.281 141.846 244.339 142.361 245.482C142.825 246.231 142.99 247.126 142.824 247.991C142.581 248.573 142.193 249.082 141.695 249.47L140.616 250.469C140.29 250.807 139.911 251.09 139.493 251.307C138.903 251.528 138.272 251.623 137.643 251.584C136.194 251.584 134.633 251.584 133.455 250.715C131.845 249.556 131.556 247.159 132.29 245.316C133.023 243.472 134.559 242.079 136.107 240.834C137.365 239.817 139.444 241.414 140.326 242.344Z" fill="#FBBEBE"/>
<path d="M146.913 248.718C146.713 249.741 146.81 250.799 147.19 251.769C147.462 252.694 147.727 253.618 147.992 254.562C147.992 254.562 147.992 254.562 147.992 254.599C148.729 253.952 149.41 253.245 150.028 252.484C150.558 251.925 150.938 251.24 151.132 250.493C151.335 249.365 150.774 248.256 150.12 247.325C149.744 246.788 149.332 246.278 148.887 245.796C148.597 246.172 148.344 246.542 148.134 246.783C147.594 247.334 147.178 247.994 146.913 248.718Z" fill="#FBBEBE"/>
<path d="M118.573 202.778C117.296 208.14 117.839 213.75 118.517 219.223C119.035 223.39 119.615 227.705 118.381 231.718C117.925 233.216 117.203 234.738 117.481 236.285C118.005 239.201 121.521 240.323 124.432 240.871C125.272 241.085 126.144 241.137 127.004 241.025C127.866 240.791 128.666 240.37 129.347 239.793C133.485 236.786 136.628 232.611 138.371 227.804C139.475 224.586 139.826 221.165 140.166 217.781C140.733 212.085 141.307 206.322 140.474 200.663C140.227 198.999 139.857 197.353 139.703 195.677C139.509 192.761 139.67 189.832 140.184 186.955C141.246 179.827 142.854 172.792 144.995 165.911C139.122 166.69 133.152 165.612 127.923 162.829C128.934 163.371 127.775 172.019 127.651 173.234C127.277 176.854 126.624 180.439 125.696 183.959C123.975 190.536 120.133 196.244 118.573 202.778Z" fill="#3F3D56"/>
<path opacity="0.1" d="M118.573 202.778C117.296 208.14 117.839 213.75 118.517 219.223C119.035 223.39 119.615 227.705 118.381 231.718C117.925 233.216 117.203 234.738 117.481 236.285C118.005 239.201 121.521 240.323 124.432 240.871C125.272 241.085 126.144 241.137 127.004 241.025C127.866 240.791 128.666 240.37 129.347 239.793C133.485 236.786 136.628 232.611 138.371 227.804C139.475 224.586 139.826 221.165 140.166 217.781C140.733 212.085 141.307 206.322 140.474 200.663C140.227 198.999 139.857 197.353 139.703 195.677C139.509 192.761 139.67 189.832 140.184 186.955C141.246 179.827 142.854 172.792 144.995 165.911C139.122 166.69 133.152 165.612 127.923 162.829C128.934 163.371 127.775 172.019 127.651 173.234C127.277 176.854 126.624 180.439 125.696 183.959C123.975 190.536 120.133 196.244 118.573 202.778Z" fill="black"/>
<path d="M150.595 171.353C153.062 178.498 152.519 186.301 151.452 193.784C150.385 201.267 148.813 208.751 149.275 216.289C149.454 219.248 149.935 222.287 149.072 225.116C148.592 226.496 147.957 227.818 147.178 229.055L127.497 263.068C126.996 263.951 126.282 264.695 125.42 265.233C124.559 265.771 123.577 266.086 122.563 266.15C120.46 266.298 118.394 265.607 116.433 264.837C115.129 264.405 113.918 263.734 112.862 262.858C112.338 262.422 111.927 261.866 111.665 261.237C111.403 260.608 111.297 259.925 111.357 259.246C112.239 253.341 113.565 247.294 114.545 241.371C115.212 237.351 116.667 233.503 118.826 230.047C120.349 227.582 122.224 225.369 123.538 222.805C127.312 215.457 126.005 206.495 123.094 198.765C120.183 191.035 115.847 183.86 113.534 175.958C112.848 173.759 112.456 171.479 112.368 169.178C112.34 166.801 112.78 164.442 113.665 162.235C114.55 160.029 115.861 158.019 117.524 156.319C118.01 155.77 118.621 155.347 119.307 155.087C120.108 154.901 120.943 154.916 121.737 155.13C132.697 157.256 146.975 160.801 150.595 171.353Z" fill="#3F3D56"/>
<path d="M327.501 64.6976C327.859 67.3974 326.885 70.1281 325.497 72.4642C320.248 81.2171 308.147 85.0881 298.791 81.0137C294.936 79.3309 291.673 76.5571 288.479 73.8203C287.405 72.8957 286.289 71.928 285.746 70.6212C284.79 68.3097 285.944 65.5544 287.825 63.9024C289.706 62.2505 292.142 61.4368 294.566 60.7033C302.566 58.213 325.596 50.3601 327.501 64.6976Z" fill="#FBBEBE"/>
<path d="M322.82 56.1295C330.104 61.9853 340.706 67.5638 348.958 71.9033C351.765 73.3826 354.879 75.0469 355.891 78.0673C356.434 79.6822 356.255 81.439 356.076 83.1403C355.73 86.4133 355.373 89.7358 354.108 92.7746C352.622 96.3313 349.995 99.2653 347.885 102.495C344.185 108.154 342.014 114.823 337.443 119.822C340.527 130.061 343.901 140.287 344.999 150.914C345.059 151.206 345.027 151.51 344.906 151.783C344.78 151.962 344.616 152.112 344.425 152.22L336.753 157.25C335.916 157.738 335.168 158.363 334.538 159.099C333.182 160.862 333.36 163.34 332.522 165.393C332.062 166.395 331.404 167.293 330.588 168.035C329.772 168.776 328.814 169.345 327.773 169.708C325.676 170.43 323.442 170.666 321.241 170.398C318.439 170.222 315.74 169.272 313.445 167.655C311.49 166.176 310.096 164.098 308.752 162.052C307.755 160.656 306.927 159.148 306.285 157.558C305.464 155.29 305.415 152.818 305.446 150.402C305.466 145.804 305.906 141.218 306.759 136.699C307.117 134.906 307.561 133.137 307.845 131.331C308.412 127.694 308.301 123.983 308.721 120.328C309.294 116.216 310.212 112.161 311.465 108.203C312.151 105.752 312.687 103.261 313.069 100.745C313.791 96.3189 315.228 92.0473 316.665 87.8002L319.132 80.5205C319.656 78.9487 320.186 77.3831 320.809 75.8482C321.969 72.982 323.461 70.1897 323.856 67.1323C324.294 63.7976 320.692 59.8403 321.907 56.7089C322.006 56.3638 322.542 55.9076 322.82 56.1295Z" fill="#3F3D56"/>
<path d="M353.917 76.3476C355.625 77.1181 356.569 78.9549 357.18 80.7302C358.556 84.731 358.887 89.0169 358.142 93.1815C357.901 94.2284 357.736 95.2914 357.648 96.3621C357.661 97.6032 357.783 98.8407 358.012 100.061C358.629 104.776 358.012 109.565 358.216 114.324C358.426 119.674 359.591 125.327 357.346 130.19C355.854 133.42 353.029 135.824 350.241 138.006C339.862 146.09 328.411 152.696 316.214 157.632C318.317 155.105 318.354 151.302 316.954 148.325C315.554 145.348 312.952 143.11 310.17 141.372C313.71 140.585 317.139 139.362 320.377 137.729C326.841 134.45 332.38 129.648 337.85 124.895C338.657 124.315 339.286 123.521 339.664 122.602C340.219 120.753 338.689 118.996 337.628 117.375C334.415 112.444 335.161 106.003 336.506 100.295C338.005 94.0383 340.206 87.8065 344.221 82.7766C346.726 79.633 349.994 77.2167 353.917 76.3476Z" fill="#3F3D56"/>
<path d="M315.672 157.786C315.117 158.69 314.397 159.48 313.55 160.116C311.7 161.349 309.159 160.881 307.092 160.006C305.172 159.192 303.401 158.065 301.85 156.671C301.183 155.962 300.396 155.378 299.525 154.945C297.909 154.328 295.652 154.791 294.745 153.305C294.639 153.149 294.587 152.963 294.597 152.775C294.652 152.239 295.355 152.091 295.898 152.06C298.416 151.894 300.86 151.14 303.034 149.86C302.34 149.358 301.746 148.731 301.283 148.01C301.091 147.759 300.986 147.451 300.987 147.135C301.062 146.791 301.251 146.483 301.523 146.26C303.506 144.39 306 143.152 308.689 142.704C311.378 142.256 314.139 142.619 316.622 143.745C317.106 143.941 317.531 144.259 317.855 144.669C318.083 145.048 318.236 145.466 318.305 145.902C318.706 147.628 320.156 150.217 319.631 151.961C319.052 153.965 316.862 156.091 315.672 157.786Z" fill="#FBBEBE"/>
<path d="M273.614 150.014C281.287 141.156 284.716 129.5 287.899 118.226L290.175 110.213L295.664 90.9131C296.472 88.0653 297.28 85.2175 297.816 82.3143C298.735 77.3029 298.822 72.1806 298.766 67.0892C298.688 64.9785 298.204 62.9026 297.341 60.9745C296.805 59.643 296.546 58.2253 296.108 56.8507C295.551 54.9344 294.717 53.1092 293.635 51.4326C293.333 50.9341 292.957 50.485 292.518 50.1011C291.759 49.5856 290.899 49.2369 289.996 49.0779C288.035 48.4953 286.003 48.1862 283.958 48.1595C281.91 48.2335 279.801 48.9423 278.481 50.4956C277.475 51.6853 277.013 53.2263 276.217 54.5639C275.847 55.1116 275.511 55.6818 275.212 56.2713C274.873 57.1669 274.685 58.1126 274.657 59.0698C274.336 62.9531 274.063 66.8406 273.836 70.7321C273.732 72.5012 273.639 74.2826 273.707 76.0578C273.762 77.4386 273.91 78.8131 274.058 80.1877L275.52 93.6499C275.859 96.8121 275.619 99.7708 275.903 102.939C276.593 110.589 274.947 118.238 273.257 125.746C272.449 129.315 271.616 132.933 269.889 136.163C268.366 139.023 266.084 141.926 266.688 145.113C266.898 146.223 267.459 147.258 267.545 148.38C267.503 149.075 267.572 149.772 267.749 150.445C268.001 150.903 268.391 151.269 268.865 151.491C269.338 151.712 269.87 151.778 270.383 151.678C271.604 151.464 272.731 150.883 273.614 150.014Z" fill="#3F3D56"/>
<path d="M274.552 114.564C274.786 116.333 274.608 118.127 274.694 119.909C274.887 122.203 275.301 124.473 275.927 126.689C276.544 129.155 277.334 131.916 279.511 133.285C280.057 133.568 280.579 133.896 281.071 134.265C281.314 134.456 281.492 134.716 281.583 135.012C281.673 135.307 281.671 135.622 281.577 135.917L279.881 135.633C280.073 135.78 280.233 135.966 280.348 136.179C280.464 136.392 280.533 136.626 280.552 136.868C280.57 137.109 280.537 137.352 280.456 137.58C280.374 137.808 280.245 138.016 280.077 138.19C279.909 138.365 279.707 138.502 279.482 138.593C279.258 138.684 279.016 138.727 278.774 138.718C278.532 138.709 278.295 138.65 278.077 138.543C277.86 138.436 277.667 138.285 277.513 138.099C277.577 138.654 277.524 139.217 277.358 139.751C277.272 140.013 277.108 140.242 276.887 140.407C276.667 140.573 276.401 140.666 276.125 140.675C275.805 140.626 275.502 140.499 275.243 140.305L270.815 137.562C269.488 136.848 268.384 135.782 267.626 134.48L265.689 131.565C265.262 131.003 264.923 130.379 264.684 129.716C263.962 127.25 265.979 124.513 264.931 122.189C264.616 121.617 264.246 121.076 263.827 120.574C261.588 117.492 261.73 113.301 261.976 109.479C262.056 108.191 262.291 106.662 263.457 106.101C264.382 105.651 265.492 106.052 266.349 106.613C267.206 107.174 267.965 107.913 268.94 108.246C269.556 108.456 270.235 108.481 270.852 108.702C271.715 109.004 272.517 110.182 273.097 110.878C273.916 111.947 274.42 113.224 274.552 114.564Z" fill="#FBBEBE"/>
<path d="M220.505 59.1684C219.981 60.3703 219.246 61.4684 218.334 62.4107C217.876 62.8816 217.314 63.2384 216.692 63.4525C216.071 63.6666 215.408 63.7321 214.757 63.6435C213.388 63.3723 212.382 62.2443 211.476 61.1779C209.107 58.3979 206.708 55.581 205.117 52.2894C202.687 47.2781 202.298 41.5579 201.947 36.0041C201.86 34.574 201.786 33.0577 202.471 31.8064C203.341 30.2099 205.185 29.4579 206.887 28.823L216.293 25.3095C216.869 25.0366 217.507 24.9197 218.143 24.9705C219.617 25.217 220.16 26.9923 220.561 28.4285C221.278 31.0094 222.47 33.4341 224.076 35.5788C226.186 38.3895 230.916 42.1743 228.215 45.6816C224.952 49.8854 222.88 54.4222 220.505 59.1684Z" fill="#BE6F72"/>
<path d="M232.538 43.1297C236.658 47.0007 238.052 53.0291 237.855 58.6692C237.657 64.3092 236.091 69.8075 235.196 75.3798C234.302 80.9521 234.123 86.9004 236.547 92.0227C237.38 93.7794 238.515 95.4067 239.094 97.2621C239.58 99.0959 239.745 101 239.582 102.89C239.572 104.882 239.191 106.855 238.459 108.709C237.145 111.618 234.444 113.64 231.86 115.489C226.586 119.298 221.208 123.169 215.016 125.16C210.822 126.51 206.381 126.954 201.99 127.195C199.017 127.431 196.027 127.347 193.072 126.942C187.902 126.081 183.152 123.568 179.534 119.779C178.903 119.169 178.384 118.453 177.998 117.665C177.621 116.639 177.439 115.552 177.461 114.46C177.313 110.412 177.338 106.364 177.535 102.317C177.649 98.4591 178.18 94.6253 179.12 90.8823C180.298 86.5675 182.34 82.5239 183.888 78.3201C189.278 63.7052 188.736 47.0746 196.223 33.4275C197.839 30.4811 200.541 27.3806 203.871 27.8491C204.512 27.8876 205.115 28.1647 205.561 28.6257C205.944 29.1868 206.158 29.8456 206.178 30.5243C206.973 37.1567 208.102 43.9618 211.229 49.9471C212.463 52.2956 214.313 55.8707 217.156 56.4994C219.999 57.1282 221.677 54.416 223.2 52.4928C225.877 48.9661 229.018 45.8166 232.538 43.1297Z" fill="#E3E8F4"/>
<path d="M252.256 33.1501C253.096 33.604 253.881 34.1543 254.594 34.7897C256.444 36.5403 257.122 39.2216 257.11 41.7612C257.098 44.3008 256.493 46.8034 256.123 49.3183C255.13 56.0987 255.975 63.0394 256.37 69.9061C256.49 71.0148 256.423 72.1358 256.173 73.2224C255.87 74.2579 255.247 75.1702 254.846 76.1749C253.668 79.146 254.557 82.5362 253.866 85.6552C253.126 88.9776 250.591 91.998 251.066 95.3697C251.257 96.6888 251.892 97.9031 252.164 99.2098C252.435 100.517 252.201 102.095 251.072 102.797C249.943 103.5 248.303 102.988 246.958 103.377C246.412 103.578 245.88 103.817 245.367 104.092C243.288 105.029 240.809 104.708 238.761 103.685C236.754 102.59 234.95 101.16 233.426 99.4564C231.076 97.0525 228.801 94.4204 227.771 91.2213C226.266 86.5859 227.604 81.5376 229.238 76.9393C230.873 72.3409 232.822 67.6932 232.532 62.8052C232.372 60.0683 231.508 57.4363 230.99 54.7488C230.349 51.0252 230.119 47.2424 230.306 43.4687C230.386 40.7072 230.571 37.8594 231.761 35.363C232.61 33.6977 233.863 32.272 235.406 31.2166C236.949 30.1612 238.733 29.5098 240.593 29.3222C244.91 28.8538 248.611 31.0543 252.256 33.1501Z" fill="#3F3D56"/>
<path opacity="0.1" d="M240.593 92.7315C240.636 94.7039 240.99 96.6571 241.641 98.5195C242.745 96.0046 242.875 93.1814 243.023 90.4446C243.64 81.0198 245.731 72.1313 247.957 63.0024C246.335 64.2352 245.422 67.3173 244.645 69.1665C241.561 76.6235 240.177 84.6732 240.593 92.7315Z" fill="black"/>
<path d="M199.017 27.0601C196.044 27.8429 193.466 29.6058 190.586 30.7585C187.595 31.9913 184.375 32.5152 181.236 33.2734C173.97 35.0363 166.674 38.3094 162.289 44.3686C159.057 48.8252 157.719 54.3297 155.504 59.378C153.654 63.6127 151.187 67.5823 149.824 71.9896C148.042 77.7406 148.245 83.9046 148.683 89.9084C149.041 94.8396 149.583 99.8263 151.822 104.197C152.994 106.49 154.61 108.542 155.782 110.835C157.188 113.591 157.928 116.629 159.1 119.465C160.272 122.3 161.993 125.136 164.713 126.615L169.215 123.983C175.932 120.057 182.648 116.124 189.155 111.858C194.829 108.16 200.553 103.913 203.575 97.8353C206.252 92.4664 206.517 86.1915 205.826 80.2309C205.135 74.2703 203.556 68.4391 202.742 62.497C201.705 55.0181 201.861 47.4222 203.205 39.9922C203.822 36.639 205.462 33.1748 205.801 29.8339C206.178 26.2649 201.589 26.382 199.017 27.0601Z" fill="#3F3D56"/>
<path d="M171.183 125.049C174.63 128.31 179.589 129.259 183.9 131.213C187.103 132.7 189.988 134.793 192.393 137.377C193.719 138.832 195.002 140.811 194.336 142.66C193.775 144.25 192.054 145.064 190.475 145.656C188.514 146.395 186.324 147.049 184.369 146.303C183.222 145.865 182.297 144.99 181.242 144.367C178.658 142.833 175.401 142.826 172.749 141.409C169.012 139.412 167.149 135.017 163.633 132.643C161.709 131.349 159.051 130.289 158.854 127.977C158.844 127.141 159.021 126.314 159.372 125.555C160.081 123.669 161.29 117.19 163.991 117.363C166.933 117.554 168.993 123.49 171.183 125.049Z" fill="#FBBEBE"/>
<path d="M153.118 96.1587C154.246 100.215 156.868 103.673 159.588 106.89C161.543 109.202 163.689 111.717 163.757 114.743C163.819 117.603 161.907 120.235 159.44 121.696C156.972 123.157 154.068 123.626 151.212 123.81C148.927 124.03 146.622 123.87 144.39 123.336C138.753 121.807 134.843 116.894 130.408 113.097C127.775 110.848 124.814 108.887 122.798 106.07C120.781 103.253 119.93 99.2099 121.916 96.3683C122.632 95.4472 123.461 94.6189 124.383 93.9027C127.751 90.984 130.623 87.5388 132.888 83.7012C133.801 82.1541 134.676 80.4774 136.212 79.5467C138.414 78.2091 141.239 78.8193 143.731 79.4727C146.438 80.1816 154.068 81.5685 154.598 85.0203C154.814 86.438 153.056 88.6448 152.791 90.1673C152.453 92.1639 152.565 94.2106 153.118 96.1587Z" fill="#FBBEBE"/>
<path d="M167.063 103.888C167.871 105.352 168.536 106.89 169.049 108.481C170.93 115.014 167.568 121.746 165.965 128.353C163.917 136.817 164.787 145.668 164.688 154.378C164.645 158.36 164.219 162.742 161.351 165.504C160.611 166.207 159.723 166.798 159.224 167.686C158.915 168.336 158.685 169.021 158.539 169.726C158.101 171.249 157.324 172.654 156.267 173.835C155.21 175.015 153.899 175.942 152.433 176.546C150.967 177.149 149.383 177.413 147.8 177.319C146.218 177.225 144.677 176.774 143.293 176.001C140.955 174.701 138.926 172.445 136.249 172.377C135.408 172.417 134.569 172.51 133.739 172.654C131.075 172.919 128.466 171.933 125.968 170.965C125.372 170.777 124.815 170.48 124.327 170.09C123.877 169.677 123.587 169.122 123.174 168.678C121.65 167.039 119.048 167.322 116.852 166.866C115.214 166.5 113.714 165.675 112.526 164.489C111.339 163.303 110.514 161.803 110.148 160.166C109.704 158.045 110.08 155.851 110.45 153.712L112.103 144.183C112.797 140.687 113.276 137.153 113.54 133.599C113.743 129.583 113.398 125.558 112.516 121.635C111.788 118.429 110.703 115.292 110.308 112.025C109.62 106.17 111.161 100.271 114.625 95.4991C115.483 94.3218 116.605 93.1445 118.061 93.0335C119.239 92.9287 120.343 93.5575 121.367 94.1615C130.26 99.4215 139.216 104.573 148.233 109.615C150.7 111.002 153.222 112.395 155.973 113.079C156.8 113.288 157.984 113.202 158.101 112.364C158.116 112.044 158.032 111.728 157.861 111.458C156.319 108.493 154.086 105.947 152.31 103.124C150.533 100.301 149.164 96.96 149.688 93.6807C150.404 89.144 154.623 86.1422 158.07 89.6988C161.937 93.7362 164.528 98.9263 167.063 103.888Z" fill="#F86D70"/>
<path d="M139.444 161.417C146.679 161.879 154.074 162.373 160.772 165.146C162.924 166.034 165.206 167.181 167.47 166.632C168.596 166.289 169.644 165.728 170.554 164.98C173.342 162.936 175.977 160.691 178.436 158.261C178.189 156.911 176.357 156.726 174.988 156.739C171.649 156.759 168.356 155.967 165.391 154.433C164.417 153.848 163.383 153.366 162.307 152.997C159.378 152.19 156.393 153.731 153.451 154.483C149.096 155.592 144.508 154.945 140.061 154.292L128.059 152.522C126.942 152.362 125.684 152.233 124.796 152.923C124.202 153.484 123.795 154.213 123.63 155.013C122.162 159.944 122.865 160.357 127.75 160.665L139.444 161.417Z" fill="#FBBEBE"/>
<path opacity="0.1" d="M303.33 75.8359C314.23 75.8359 323.066 67.0048 323.066 56.111C323.066 45.2173 314.23 36.3862 303.33 36.3862C292.43 36.3862 283.594 45.2173 283.594 56.111C283.594 67.0048 292.43 75.8359 303.33 75.8359Z" fill="black"/>
<path d="M303.188 74.9791C314.089 74.9791 322.925 66.148 322.925 55.2543C322.925 44.3605 314.089 35.5294 303.188 35.5294C292.288 35.5294 283.452 44.3605 283.452 55.2543C283.452 66.148 292.288 74.9791 303.188 74.9791Z" fill="#FBBEBE"/>
<path d="M319.847 30.2098C321.426 31.1838 323.079 32.2316 323.942 33.8713C324.407 34.9844 324.76 36.1406 324.997 37.3231C326.076 41.0215 328.951 44.233 329.123 48.0855C329.314 52.3078 326.144 55.9754 322.555 58.1883C321.735 58.7918 320.748 59.1238 319.73 59.1376C318.688 59.0698 317.787 58.4164 316.831 57.9972C312.779 56.1973 308.246 58.478 303.953 59.5259C299.492 60.6026 294.812 60.3279 290.508 58.7369C288.195 57.874 285.95 56.5795 284.5 54.5762C283.051 52.5729 282.533 49.7683 283.767 47.617C284.383 46.5198 285.407 45.5274 285.339 44.2761C285.302 43.5241 284.858 42.8461 284.723 42.1064C284.525 40.9291 285.142 39.7826 285.771 38.7778C288.625 34.1871 292.232 30.1092 296.441 26.7148C297.675 25.7039 299.099 24.7177 300.715 24.6437C303.959 24.502 306.747 26.9183 310.084 26.9306C313.871 26.9429 316.591 28.2004 319.847 30.2098Z" fill="#3F3D56"/>
<path opacity="0.1" d="M230.534 51.0874C241.774 51.0874 250.887 41.9803 250.887 30.7461C250.887 19.5119 241.774 10.4048 230.534 10.4048C219.293 10.4048 210.18 19.5119 210.18 30.7461C210.18 41.9803 219.293 51.0874 230.534 51.0874Z" fill="black"/>
<path d="M230.891 50.588C242.132 50.588 251.245 41.4809 251.245 30.2468C251.245 19.0126 242.132 9.90552 230.891 9.90552C219.651 9.90552 210.538 19.0126 210.538 30.2468C210.538 41.4809 219.651 50.588 230.891 50.588Z" fill="#BE6F72"/>
<path d="M241.765 41.7365C244.639 43.3453 248.185 43.1789 251.392 42.4454C253.211 42.1038 254.936 41.3765 256.45 40.3126C257.202 39.7757 257.822 39.0749 258.263 38.2634C258.704 37.4518 258.955 36.5507 258.997 35.628C258.997 33.563 257.64 31.7015 257.474 29.6366C257.27 27.0354 258.966 24.6314 259.145 22.0178C259.324 19.4043 258.035 17.0496 256.777 14.8059C254.612 10.9534 252.361 7.05161 249.067 4.10521C245.774 1.15881 241.21 -0.721215 236.892 0.271192C234.771 0.758149 232.803 1.89849 230.638 2.1204C228.714 2.29915 226.814 1.71974 224.896 1.47318C222.978 1.22661 220.826 1.38072 219.45 2.70598C218.698 3.44566 218.217 4.48738 217.335 5.02981C216.737 5.30551 216.118 5.53427 215.485 5.71402C213.258 6.6078 212.24 9.11656 211.451 11.3726L206.159 26.5299C207.929 27.7627 210.063 28.3236 212 29.2729C213.936 30.2222 215.818 31.7385 216.212 33.8589C216.515 35.4677 215.941 37.3169 216.878 38.6607C217.736 39.8935 219.481 40.1031 220.961 39.8935C222.442 39.6839 223.928 39.1723 225.408 39.4004C229.109 39.9613 230.484 42.2297 233.907 39.4004C237.33 36.5711 238.582 39.949 241.765 41.7365Z" fill="#3F3D56"/>
<path opacity="0.1" d="M144.397 94.6115C154.615 94.6115 162.899 86.3323 162.899 76.1195C162.899 65.9066 154.615 57.6274 144.397 57.6274C134.178 57.6274 125.894 65.9066 125.894 76.1195C125.894 86.3323 134.178 94.6115 144.397 94.6115Z" fill="black"/>
<path d="M145.112 93.6068C155.331 93.6068 163.615 85.3276 163.615 75.1147C163.615 64.9019 155.331 56.6227 145.112 56.6227C134.893 56.6227 126.609 64.9019 126.609 75.1147C126.609 85.3276 134.893 93.6068 145.112 93.6068Z" fill="#FBBEBE"/>
<path d="M159.279 57.0357C154.874 53.658 149.924 51.0564 144.643 49.343C141.264 48.2458 137.588 47.4938 134.158 48.5047C129.508 49.83 123.285 51.8086 120.405 55.6981C118.986 57.6089 117.549 59.5753 116.864 61.8621C115.495 66.4605 117.444 71.3609 117.315 76.1565C117.16 81.7472 114.194 86.851 110.956 91.4124C107.718 95.9738 107.064 102.508 105.152 107.772C104.498 109.578 104.289 112.087 105.972 112.993C107.453 113.812 109.241 112.789 110.61 111.803L118.844 105.855C119.484 105.329 120.222 104.935 121.015 104.696C122.711 104.301 124.37 105.362 125.789 106.366L143.058 118.571C143.4 117.875 143.584 117.112 143.598 116.336C143.612 115.561 143.455 114.792 143.138 114.084C144.761 114.583 145.939 115.933 147.363 116.894C148.788 117.856 150.953 118.17 151.989 116.827C153.025 115.483 152.242 113.677 151.089 112.592C149.935 111.507 148.418 110.86 147.289 109.744C145.05 107.519 144.822 104.006 143.41 101.195C142.398 99.2222 140.764 97.5703 140.049 95.4683C138.883 92.035 140.406 88.3366 141.899 85.0327C143.681 81.1123 145.698 76.927 149.491 74.8805C150.768 74.1902 152.18 73.7833 153.488 73.1546C156.744 71.5951 160.809 67.9152 162.4 64.6174C163.794 61.6895 161.648 58.8602 159.279 57.0357Z" fill="#3F3D56"/>
<path opacity="0.1" d="M131.272 118.146C133.042 119.274 135.04 119.995 136.78 121.172C138.519 122.35 140.042 124.137 140.092 126.233C140.141 128.236 138.858 129.993 137.624 131.583L122.6 151.29L130.26 153.318C129.027 155.019 128.712 157.189 128.071 159.186C127.429 161.183 126.221 163.26 124.173 163.784C122.323 164.259 120.386 163.285 118.474 163.396C117.062 163.482 115.729 164.148 114.317 164.203C112.498 164.271 110.808 163.316 109.29 162.305C105.911 160.043 102.555 156.8 102.58 152.732C102.66 151.356 102.936 149.999 103.4 148.701C105.614 141.483 107.909 134.092 112.498 128.088C114.965 124.883 117.981 122.177 120.997 119.49C121.682 118.8 122.489 118.242 123.377 117.844C125.351 117.104 127.503 118.016 129.545 118.608C131.586 119.2 134.158 119.286 135.336 117.542" fill="black"/>
<path d="M130.624 116.931C132.394 118.053 134.393 118.781 136.132 119.958C137.871 121.135 139.395 122.923 139.45 125.012C139.506 127.102 138.217 128.779 136.983 130.369L121.953 150.057L129.613 152.085C128.379 153.786 128.065 155.95 127.423 157.953C126.782 159.956 125.573 162.027 123.525 162.551C121.675 163.026 119.738 162.052 117.826 162.163C116.414 162.243 115.082 162.915 113.669 162.964C111.85 163.032 110.16 162.077 108.643 161.066C105.263 158.81 101.908 155.561 101.939 151.499C102.012 150.123 102.287 148.765 102.753 147.468C104.967 140.244 107.261 132.853 111.85 126.856C114.317 123.644 117.339 120.938 120.349 118.226C121.038 117.54 121.844 116.982 122.73 116.58C124.703 115.84 126.856 116.753 128.897 117.351C130.939 117.949 133.511 118.029 134.689 116.284" fill="#F86D70"/>
<g opacity="0.1">
<path opacity="0.1" d="M285.142 50.4895C286.591 52.4928 288.842 53.7934 291.149 54.6502C295.452 56.2475 300.134 56.5222 304.595 55.4392C308.912 54.3913 313.42 52.1106 317.473 53.9105C318.429 54.3358 319.323 54.9831 320.365 55.057C321.385 55.0386 322.374 54.7048 323.196 54.1016C325.694 52.5606 327.988 50.3169 329.086 47.6725C329.086 47.8081 329.086 47.9437 329.123 48.0855C329.314 52.3079 326.144 55.9755 322.555 58.1883C321.735 58.7919 320.748 59.1238 319.73 59.1376C318.688 59.0698 317.787 58.4164 316.831 57.9973C312.779 56.1974 308.246 58.4781 303.953 59.5259C299.492 60.6026 294.812 60.3279 290.508 58.7369C288.195 57.874 285.95 56.5795 284.5 54.5762C283.051 52.5729 282.533 49.7683 283.767 47.6171L283.859 47.463C284.059 48.5538 284.497 49.5872 285.142 50.4895Z" fill="black"/>
<path opacity="0.1" d="M285.962 40.1894C286.011 41.1387 285.438 41.9339 284.889 42.7413C284.812 42.5411 284.753 42.335 284.71 42.1249C284.525 41.0216 285.055 39.949 285.641 38.9813C285.809 39.3653 285.917 39.7727 285.962 40.1894Z" fill="black"/>
</g>
<path opacity="0.1" d="M212.894 9.36317L207.602 24.5143C209.373 25.7471 211.507 26.3142 213.443 27.2573C215.38 28.2004 217.261 29.7229 217.656 31.8434C217.958 33.4522 217.384 35.3014 218.322 36.6513C219.179 37.8841 220.925 38.0875 222.405 37.8841C223.885 37.6807 225.371 37.1629 226.852 37.391C230.552 37.9519 231.928 40.2202 235.351 37.4218C238.774 34.6233 240.013 37.9457 243.196 39.7333C246.07 41.3483 249.616 41.1818 252.824 40.4422C254.642 40.1024 256.366 39.3773 257.881 38.3156C258.096 38.1396 258.302 37.9524 258.498 37.7546C258.026 38.7649 257.314 39.645 256.425 40.3189C254.911 41.3828 253.187 42.11 251.368 42.4516C248.161 43.1851 244.584 43.3516 241.74 41.7428C238.558 39.9552 237.25 36.6944 233.895 39.4313C230.54 42.1681 229.084 39.9614 225.396 39.4313C223.916 39.2032 222.436 39.7148 220.949 39.9244C219.463 40.134 217.724 39.9244 216.866 38.6916C215.929 37.3478 216.502 35.4986 216.2 33.8898C215.805 31.7694 213.924 30.2469 211.988 29.3038C210.051 28.3607 207.917 27.7874 206.147 26.5608L211.463 11.3665C212.08 9.69603 212.759 7.88997 213.992 6.70032C213.565 7.56138 213.198 8.45115 212.894 9.36317Z" fill="black"/>
<g opacity="0.1">
<path opacity="0.1" d="M144.514 114.749C145.877 115.366 147.597 115.458 148.461 114.306C149.429 113.073 148.714 111.162 147.56 110.071C146.407 108.98 144.89 108.339 143.761 107.223C141.522 105.004 141.294 101.491 139.882 98.6798C138.87 96.7011 137.236 95.0492 136.52 92.9473C135.355 89.5201 136.878 85.8155 138.371 82.5177C140.153 78.5974 142.17 74.4121 145.963 72.3656C147.24 71.6752 148.652 71.2684 149.96 70.6397C153.216 69.0802 157.281 65.3941 158.872 62.0964C160.21 59.3164 158.323 56.6165 156.078 54.7858C157.17 55.4947 158.237 56.2405 159.273 57.0357C161.647 58.8849 163.787 61.6895 162.357 64.6051C160.765 67.9029 156.701 71.5828 153.444 73.1423C152.137 73.7587 150.724 74.1778 149.448 74.8682C145.655 76.9146 143.638 81.1 141.855 85.0203C140.357 88.3242 138.833 92.0227 140.005 95.456C140.721 97.5579 142.355 99.2099 143.366 101.182C144.797 103.993 145.007 107.507 147.246 109.732C148.375 110.848 149.892 111.489 151.045 112.58C152.199 113.671 152.895 115.557 151.946 116.814C150.996 118.072 148.738 117.813 147.32 116.882C146.364 116.235 145.494 115.384 144.514 114.749Z" fill="black"/>
<path opacity="0.1" d="M107.107 109.282L115.341 103.34C115.981 102.812 116.718 102.416 117.512 102.175C119.208 101.786 120.867 102.847 122.286 103.851L139.555 116.056C139.896 115.359 140.081 114.595 140.094 113.818C140.108 113.042 139.952 112.272 139.635 111.563C141.22 112.056 142.374 113.375 143.749 114.299C143.549 114.209 143.343 114.133 143.132 114.071C143.448 114.78 143.605 115.549 143.591 116.324C143.577 117.099 143.393 117.862 143.052 118.559L125.783 106.354C124.364 105.349 122.699 104.289 121.009 104.684C120.216 104.923 119.478 105.317 118.838 105.842L110.604 111.791C109.235 112.777 107.446 113.8 105.966 112.98C105.561 112.732 105.229 112.381 105.003 111.963C104.776 111.546 104.664 111.076 104.677 110.601C105.551 110.29 106.37 109.845 107.107 109.282Z" fill="black"/>
</g>
<path d="M312.816 149.539C312.816 149.539 277.476 152.368 270.445 147.363L302.775 142.383L312.816 149.539Z" fill="#E3E8F4"/>
<path opacity="0.1" d="M312.816 149.539C312.816 149.539 277.476 152.368 270.445 147.363L302.775 142.383L312.816 149.539Z" fill="black"/>
<path d="M312.816 149.539L302.917 143.276C302.917 143.276 273.386 151.758 265.294 148.257L273.528 136.712L302.787 142.413L312.816 149.539Z" fill="#E3E8F4"/>
<path d="M268.903 66.4974C267.811 67.8755 266.936 69.4115 266.306 71.0526C266.022 71.9218 265.88 72.8279 265.64 73.7093C264.963 75.9044 263.921 77.9696 262.556 79.8179C259.515 84.2375 255.716 88.503 254.951 93.8102C254.581 96.4299 254.988 99.0927 255.507 101.688C255.787 103.399 256.276 105.07 256.962 106.662C257.745 108.351 258.911 109.837 259.805 111.47C260.622 113.073 261.311 114.739 261.865 116.451C262.92 115.397 263.543 113.985 264.388 112.752C265.233 111.519 266.491 110.41 267.977 110.391C269.692 110.391 271.104 111.809 272.801 112.031C273.065 112.084 273.34 112.059 273.59 111.957C274.207 111.667 274.256 110.835 274.207 110.169C273.72 105.516 271.055 100.923 272.313 96.4114C273.473 92.2383 277.617 89.631 279.795 85.8894C281.374 83.1711 281.842 79.9658 282.262 76.8468C282.786 73.1176 283.316 69.3575 283.082 65.6036C282.965 63.7113 281.46 51.7531 278.709 53.0044C277.753 53.4359 276.921 55.2666 276.322 56.0864L273.855 59.5814L268.903 66.4974Z" fill="#3F3D56"/>
<path d="M195.082 143.64L175.241 159.784L149.713 155.222L166.902 141.735L195.082 143.64Z" fill="#E3E8F4"/>
<path opacity="0.1" d="M195.798 142.635L175.956 158.779L150.428 154.218L167.618 140.731L195.798 142.635Z" fill="black"/>
<path d="M195.656 141.779L175.814 157.916L150.28 153.361L167.476 139.868L195.656 141.779Z" fill="#E3E8F4"/>
<path opacity="0.1" d="M196.229 139.911L176.382 156.054L150.854 151.493L168.05 138.006L196.229 139.911Z" fill="black"/>
<path d="M196.081 139.054L176.24 155.198L150.712 150.636L167.901 137.149L196.081 139.054Z" fill="#E3E8F4"/>
<path d="M457.077 359.633C457.545 359.406 458.061 359.296 458.581 359.313C459.101 359.331 459.609 359.475 460.061 359.733C460.512 359.991 460.894 360.356 461.173 360.795C461.451 361.234 461.618 361.735 461.659 362.253L462.763 376.56L456.213 377.743L452.759 367.4L457.077 359.633Z" fill="#3F3D56"/>
<path d="M227.919 263.74L127.676 314.581C126.527 315.167 125.562 316.06 124.89 317.161C124.218 318.263 123.865 319.529 123.871 320.818C123.876 322.108 124.239 323.371 124.919 324.467C125.6 325.563 126.571 326.449 127.726 327.026L343.623 435.309C347.464 437.232 351.72 438.181 356.014 438.073C360.309 437.966 364.511 436.805 368.251 434.693L459.186 383.445C460.289 382.816 461.2 381.898 461.819 380.79C462.439 379.681 462.743 378.425 462.701 377.156C462.658 375.888 462.27 374.655 461.578 373.59C460.886 372.526 459.916 371.671 458.773 371.117L234.08 263.672C233.116 263.211 232.06 262.977 230.991 262.989C229.923 263.001 228.872 263.258 227.919 263.74Z" fill="#3F3D56"/>
<path d="M127.004 305.735L123.865 308.065L123.618 319.222C123.598 320.092 123.824 320.95 124.269 321.698C124.714 322.445 125.36 323.053 126.134 323.451L345.72 436.067C346.219 436.324 346.775 436.449 347.335 436.429C347.895 436.409 348.441 436.245 348.92 435.954C349.399 435.662 349.795 435.252 350.069 434.764C350.344 434.275 350.488 433.724 350.488 433.164V416.959L127.004 305.735Z" fill="#3F3D56"/>
<path d="M227.919 250.808L127.676 301.642C126.526 302.227 125.56 303.119 124.886 304.219C124.213 305.319 123.858 306.585 123.861 307.874C123.864 309.164 124.226 310.428 124.904 311.525C125.583 312.622 126.554 313.509 127.707 314.088L343.623 422.371C347.465 424.292 351.72 425.24 356.014 425.133C360.308 425.025 364.51 423.865 368.251 421.754L459.186 370.501C460.289 369.872 461.2 368.953 461.819 367.845C462.439 366.737 462.743 365.481 462.701 364.212C462.658 362.943 462.27 361.71 461.578 360.646C460.886 359.582 459.916 358.726 458.773 358.173L234.08 250.734C233.116 250.274 232.059 250.041 230.991 250.054C229.922 250.067 228.871 250.325 227.919 250.808Z" fill="#E3E8F4"/>
<path d="M248.666 260.035L138.217 316.085L328.05 410.949L441.954 353.167L248.666 260.035Z" fill="#3F3D56"/>
<path d="M397.516 393.702C403.951 393.702 409.167 390.614 409.167 386.804C409.167 382.995 403.951 379.907 397.516 379.907C391.082 379.907 385.865 382.995 385.865 386.804C385.865 390.614 391.082 393.702 397.516 393.702Z" fill="#3F3D56"/>
<path d="M185.029 279.008C185.625 279.008 186.108 278.525 186.108 277.929C186.108 277.334 185.625 276.851 185.029 276.851C184.433 276.851 183.95 277.334 183.95 277.929C183.95 278.525 184.433 279.008 185.029 279.008Z" fill="#3F3D56"/>
<path d="M181.797 287.632C182.512 287.632 183.092 287.052 183.092 286.337C183.092 285.622 182.512 285.043 181.797 285.043C181.082 285.043 180.502 285.622 180.502 286.337C180.502 287.052 181.082 287.632 181.797 287.632Z" fill="#3F3D56"/>
<path d="M186.54 284.18L199.486 278.145" stroke="#3F3D56" stroke-miterlimit="10"/>
<path d="M301.221 312.237L264.676 333.324C259.366 336.388 257.547 343.174 260.613 348.481C263.678 353.787 270.468 355.606 275.778 352.542L312.323 331.455C317.633 328.391 319.452 321.605 316.387 316.298C313.321 310.991 306.531 309.173 301.221 312.237Z" fill="#4585E5"/>
<path d="M333.91 328.882L297.364 349.969C292.054 353.033 290.235 359.818 293.301 365.125C296.366 370.432 303.156 372.25 308.466 369.186L345.011 348.099C350.321 345.035 352.14 338.249 349.075 332.943C346.009 327.636 339.219 325.818 333.91 328.882Z" fill="#4585E5"/>
<path d="M271.618 293.131L235.072 314.218C229.762 317.282 227.943 324.067 231.009 329.374C234.074 334.681 240.864 336.499 246.174 333.435L282.719 312.348C288.029 309.284 289.848 302.499 286.783 297.192C283.717 291.885 276.927 290.067 271.618 293.131Z" fill="#4585E5"/>
</g>
<defs>
<clipPath id="clip0">
<rect width="570" height="504.759" fill="white"/>
</clipPath>
</defs>
</svg>
