<svg width="130" height="130" viewBox="0 0 130 130" fill="none" xmlns="http://www.w3.org/2000/svg">
<g clip-path="url(#clip0)">
<path d="M130 65C130.012 73.799 128.231 82.5081 124.765 90.5961L124.55 91.0923C118.689 104.427 108.525 115.411 95.6847 122.287C82.8443 129.164 68.0689 131.536 53.7211 129.025C53.3308 128.956 52.941 128.884 52.5519 128.81C48.5314 128.03 44.5943 126.869 40.7942 125.342C40.1769 125.094 39.5641 124.837 38.9558 124.571C38.5404 124.39 38.125 124.204 37.7135 124.011C26.4556 118.794 16.9241 110.467 10.2422 100.011C3.56029 89.5558 0.00660896 77.4081 0 65C0 29.1019 29.1019 0 65 0C100.898 0 130 29.1019 130 65Z" fill="#0041CC"/>
<path opacity="0.2" d="M53.7213 129.025C53.3309 128.956 52.9411 128.884 52.552 128.81C52.2982 121.442 51.427 106.321 48.4559 90.4846C46.8309 81.8173 44.5751 72.9326 41.4463 64.9903C40.3743 62.2422 39.15 59.556 37.779 56.9442C34.6174 50.973 30.7828 45.9461 26.1328 42.5403L26.8174 41.6057C30.6847 44.4403 34.1604 48.4198 37.2444 53.5442C38.1693 55.0788 39.0578 56.716 39.9097 58.4557C40.8232 60.3172 41.6944 62.2935 42.5232 64.3846C43.052 65.7153 43.5629 67.0922 44.0559 68.5153C46.2021 74.6942 48.0264 81.7442 49.529 89.6653C49.8617 91.4153 50.1783 93.2083 50.479 95.0442C52.8078 109.269 53.5097 122.421 53.7213 129.025Z" fill="black"/>
<path opacity="0.2" d="M38.9557 124.571C38.5403 124.39 38.1249 124.204 37.7134 124.012C37.3114 119.646 36.573 114.231 35.223 109.09C34.6317 106.782 33.8727 104.519 32.9518 102.321C31.4115 98.7154 29.4172 95.65 26.8384 93.7596L27.523 92.8269C30.223 94.8038 32.3057 97.9288 33.9153 101.585C35.7288 105.704 36.9384 110.498 37.7441 115.079C38.3422 118.481 38.7191 121.767 38.9557 124.571Z" fill="black"/>
<path opacity="0.2" d="M19.6657 42.5136C22.8613 42.5136 25.4519 39.923 25.4519 36.7273C25.4519 33.5316 22.8613 30.941 19.6657 30.941C16.47 30.941 13.8794 33.5316 13.8794 36.7273C13.8794 39.923 16.47 42.5136 19.6657 42.5136Z" fill="black"/>
<path opacity="0.2" d="M21.5292 92.323C24.7248 92.323 27.3154 89.7324 27.3154 86.5368C27.3154 83.3411 24.7248 80.7505 21.5292 80.7505C18.3335 80.7505 15.7429 83.3411 15.7429 86.5368C15.7429 89.7324 18.3335 92.323 21.5292 92.323Z" fill="black"/>
<path opacity="0.2" d="M42.6373 46.4465C41.4103 53.369 44.119 59.6373 44.119 59.6373C44.119 59.6373 48.817 54.6819 50.044 47.7593C51.271 40.8367 48.5624 34.5685 48.5624 34.5685C48.5624 34.5685 43.8643 39.5239 42.6373 46.4465Z" fill="black"/>
<path opacity="0.2" d="M23.4074 62.879C30.0103 65.2935 36.6452 63.744 36.6452 63.744C36.6452 63.744 32.5748 58.28 25.972 55.8656C19.3691 53.4512 12.7341 55.0006 12.7341 55.0006C12.7341 55.0006 16.8045 60.4646 23.4074 62.879Z" fill="black"/>
<path opacity="0.2" d="M22.2875 106.987C26.9156 108.679 31.5728 107.575 31.5728 107.575C31.5728 107.575 28.7263 103.728 24.0982 102.035C19.4701 100.343 14.813 101.447 14.813 101.447C14.813 101.447 17.6595 105.295 22.2875 106.987Z" fill="black"/>
<path d="M64.8665 79.3941C78.8616 79.3941 90.2069 68.0488 90.2069 54.0537C90.2069 40.0586 78.8616 28.7133 64.8665 28.7133C50.8714 28.7133 39.5261 40.0586 39.5261 54.0537C39.5261 68.0488 50.8714 79.3941 64.8665 79.3941Z" fill="#D0CDE1"/>
<path d="M54.968 73.4549C54.968 73.4549 58.1356 88.5008 58.1356 90.0845C58.1356 91.6683 73.1814 98.7953 73.1814 98.7953L86.6435 96.4196L91.3949 82.1657C91.3949 82.1657 83.476 70.2873 83.476 65.536L54.968 73.4549Z" fill="#D0CDE1"/>
<path d="M124.765 90.5961L124.55 91.0923C118.689 104.427 108.525 115.411 95.6848 122.287C82.8444 129.164 68.069 131.536 53.7213 129.025C53.3309 128.956 52.9411 128.884 52.552 128.81C48.5315 128.03 44.5944 126.869 40.7943 125.342C40.177 125.094 39.5642 124.837 38.9559 124.571C38.5405 124.39 38.1251 124.204 37.7136 124.011C33.9833 122.283 30.4257 120.205 27.0886 117.804L24.0847 109.09L25.7732 107.802L29.2463 105.15L32.952 102.321L33.9155 101.585L48.4559 90.4846L49.5289 89.6654L57.0866 83.8962L57.0886 83.8942C57.0886 83.8942 65.2616 97.2115 77.1405 93.2519C89.0193 89.2923 88.7597 77.9385 88.7597 77.9385L124.765 90.5961Z" fill="#2F2E41"/>
<path d="M42.8913 33.6377C42.8913 33.6377 50.9368 16.2058 66.3573 20.2285C81.7778 24.2513 90.4938 30.2854 91.1642 36.3195C91.8347 42.3536 90.829 51.4048 90.829 51.4048C90.829 51.4048 89.1528 39.0013 78.4255 41.6832C67.6982 44.365 50.9368 42.3536 50.9368 42.3536L48.255 66.4901C48.255 66.4901 45.2379 62.1321 41.8856 64.8139C38.5334 67.4958 32.164 39.0013 42.8913 33.6377Z" fill="#2F2E41"/>
<path d="M40.7941 125.342C40.1768 125.094 39.564 124.837 38.9557 124.571C38.5403 124.39 38.1249 124.204 37.7134 124.011C31.544 121.151 25.8604 117.342 20.8691 112.723C22.6364 110.315 24.0845 109.09 24.0845 109.09H35.9634L37.7441 115.079L40.7941 125.342Z" fill="#2F2E41"/>
<path d="M114.36 89.2924L124.55 91.0924C121.823 97.3049 118.14 103.052 113.635 108.125L114.36 89.2924Z" fill="#2F2E41"/>
</g>
<defs>
<clipPath id="clip0">
<rect width="130" height="130" fill="white"/>
</clipPath>
</defs>
</svg>
