<svg width="570" height="539" viewBox="0 0 570 539" fill="none" xmlns="http://www.w3.org/2000/svg">
<path opacity="0.1" d="M327.53 88.8254C291.389 87.036 256.97 70.3821 224.12 52.1761C191.271 33.97 158.678 13.7698 123.405 4.06848C100.716 -2.14034 74.7725 -3.02424 56.4909 14.3411C38.9037 31.0596 33.2124 59.9155 30.1629 86.6911C27.8985 106.837 26.5096 128.04 32.8124 146.893C37.1827 159.99 44.9498 170.995 50.3165 183.542C69.0057 227.176 55.7965 280.986 35.5448 323.596C26.0492 343.581 15.0289 362.649 7.69964 383.96C0.370383 405.27 -3.02628 429.61 3.38965 451.319C9.74519 472.878 24.8943 488.982 41.304 500.354C74.6367 523.432 113.91 530.04 152.209 533.769C236.99 542.048 322.216 538.469 407.223 534.847C438.676 533.511 470.273 532.163 501.22 525.221C518.408 521.362 536.153 515.24 548.63 500.429C564.482 481.663 568.391 449.896 557.779 426.365C539.973 386.903 490.759 377.094 478.312 334.742C471.466 311.427 478.5 285.46 488.449 263.847C509.803 217.497 545.588 176.773 547.475 123.718C548.774 87.3163 531.564 50.8502 504.964 33.6143C477.081 15.5591 438.412 17.8335 417.844 47.7243C396.663 78.5743 359.436 90.4099 327.53 88.8254Z" fill="#4585E5"/>
<path d="M486.544 480.064C528.699 480.064 562.873 475.636 562.873 470.174C562.873 464.711 528.699 460.283 486.544 460.283C444.389 460.283 410.215 464.711 410.215 470.174C410.215 475.636 444.389 480.064 486.544 480.064Z" fill="#E6E6E6"/>
<path d="M490.754 435.737C490.754 435.737 494.856 449.843 497.59 453.483C500.324 457.124 502.603 463.039 501.236 463.949C499.869 464.859 497.134 475.78 500.78 476.235C504.426 476.69 512.629 464.404 513.084 460.309C513.54 456.213 515.363 441.652 515.363 441.652C515.363 441.652 518.553 428.911 513.54 428.001C508.527 427.091 500.78 426.636 500.78 426.636L490.754 435.737Z" fill="#2F2E41"/>
<path d="M471.614 450.753C471.614 450.753 465.69 466.224 464.322 467.134C462.955 468.045 457.942 476.235 467.968 476.235C477.994 476.235 483.463 473.505 483.463 473.505L486.653 469.865C486.653 469.865 486.653 460.309 485.741 458.944C484.83 457.579 485.741 450.753 485.741 450.753H471.614Z" fill="#2F2E41"/>
<path d="M431.055 309.235C431.055 309.235 423.764 358.38 430.144 374.306C436.524 390.232 442.904 394.783 442.904 394.783L491.21 439.832C491.21 439.832 506.249 432.096 504.881 427.091C504.881 427.091 501.691 425.271 501.236 423.906C500.78 422.54 494.856 422.085 494.856 422.085C494.856 422.085 492.121 418.9 492.121 417.08C492.121 415.26 468.424 382.952 460.677 380.677C460.677 380.677 456.575 375.671 457.031 374.761C457.487 373.851 455.664 370.666 455.664 370.666L460.221 352.919L488.931 348.369C488.931 348.369 500.78 306.505 490.754 303.32C480.728 300.134 431.055 309.235 431.055 309.235Z" fill="#2F2E41"/>
<path d="M488.02 341.088L488.931 348.369C488.931 348.369 488.931 367.48 488.02 369.301C487.108 371.121 486.653 373.851 488.02 375.671C489.387 377.491 491.666 382.042 490.754 383.862C489.843 385.682 492.577 437.102 488.931 440.742C485.286 444.382 486.653 448.933 487.108 449.388C487.564 449.843 486.653 451.663 486.653 451.663C486.653 451.663 467.968 454.848 469.335 451.663C470.703 448.478 470.703 446.658 471.614 445.748C472.525 444.838 471.614 443.472 471.614 443.472C471.614 443.472 472.981 428.911 471.614 428.001C470.247 427.091 466.145 383.407 466.145 382.952C466.145 382.497 464.778 381.587 464.778 379.767C464.778 377.946 464.778 372.031 462.5 371.121C460.221 370.211 460.677 347.914 460.677 347.914L488.02 341.088Z" fill="#2F2E41"/>
<path d="M455.664 178.638C455.664 178.638 457.487 192.289 462.955 195.02C468.424 197.75 472.07 199.115 472.07 199.115L467.513 215.042L465.69 228.693H444.727L433.334 219.592L436.979 204.576L438.802 201.845C438.802 201.845 441.081 191.834 439.258 188.649C437.435 185.464 455.664 178.638 455.664 178.638Z" fill="#FFB9B9"/>
<path d="M446.549 211.856L449.739 217.772C449.739 217.772 452.018 209.581 455.208 208.216C458.398 206.851 466.145 204.576 466.145 202.755C466.145 200.935 465.689 196.385 467.512 196.385C469.335 196.385 487.108 201.845 489.843 203.666C492.577 205.486 493.033 207.306 493.033 207.306L488.02 259.636C488.02 259.636 495.311 284.208 493.033 293.764C490.754 303.32 488.931 304.685 483.462 306.05C477.994 307.415 481.184 302.864 465.234 307.415C449.284 311.965 439.258 310.6 435.612 310.6C431.966 310.6 429.688 312.42 428.776 312.875C427.865 313.33 428.321 310.6 431.511 306.505C434.701 302.409 433.333 295.584 433.333 295.584C433.333 295.584 429.688 283.753 431.966 279.202C434.245 274.652 437.435 268.736 434.701 266.916C431.966 265.096 428.321 251.445 428.321 251.445L418.295 215.952L438.802 201.845C438.802 201.845 437.891 208.216 441.081 209.581C444.271 210.946 446.549 211.856 446.549 211.856Z" fill="#575A89"/>
<path d="M421.029 215.497H418.295C418.295 215.497 413.738 223.232 413.738 228.693C413.738 234.153 416.016 265.096 416.016 265.096L429.232 278.747L432.422 268.281L433.334 245.074L421.029 215.497Z" fill="#575A89"/>
<path d="M428.321 263.731C428.321 263.731 413.282 259.636 413.738 266.006C414.193 272.377 416.472 280.112 423.764 281.933C431.055 283.753 433.334 273.742 433.334 273.742C433.334 273.742 434.245 264.641 428.321 263.731Z" fill="#575A89"/>
<path d="M484.83 284.663C484.83 284.663 483.918 305.595 478.45 307.87L491.666 311.055C491.666 311.055 498.046 289.213 497.134 288.303C496.223 287.393 484.83 284.663 484.83 284.663Z" fill="#FFB9B9"/>
<path d="M406.665 242.056L414.491 238.642C414.783 238.514 415.114 238.508 415.411 238.624C415.708 238.741 415.947 238.97 416.075 239.262L424.775 259.149C424.931 259.506 424.939 259.909 424.797 260.272C424.655 260.634 424.374 260.925 424.017 261.081L416.679 264.281C416.322 264.437 415.918 264.445 415.555 264.303C415.192 264.161 414.901 263.881 414.745 263.524L406.044 243.637C405.981 243.493 405.947 243.337 405.944 243.179C405.941 243.022 405.969 242.865 406.026 242.718C406.084 242.571 406.17 242.437 406.28 242.324C406.389 242.21 406.52 242.119 406.665 242.056Z" fill="#2F2E41"/>
<path opacity="0.1" d="M406.665 242.056L414.491 238.642C414.783 238.514 415.114 238.508 415.411 238.624C415.708 238.741 415.947 238.97 416.075 239.262L424.775 259.149C424.931 259.506 424.939 259.909 424.797 260.272C424.655 260.634 424.374 260.925 424.017 261.081L416.679 264.281C416.322 264.437 415.918 264.445 415.555 264.303C415.192 264.161 414.901 263.881 414.745 263.524L406.044 243.637C405.981 243.493 405.947 243.337 405.944 243.179C405.941 243.022 405.969 242.865 406.026 242.718C406.084 242.571 406.17 242.437 406.28 242.324C406.389 242.21 406.52 242.119 406.665 242.056Z" fill="black"/>
<path d="M407.109 243.071L413.932 240.094C414.224 239.967 414.555 239.961 414.852 240.077C415.149 240.193 415.388 240.422 415.516 240.714L423.772 259.587C423.928 259.943 423.936 260.347 423.794 260.709C423.652 261.071 423.371 261.362 423.014 261.518L416.679 264.281C416.322 264.437 415.918 264.445 415.555 264.303C415.192 264.161 414.901 263.881 414.745 263.524L406.488 244.652C406.36 244.36 406.354 244.03 406.471 243.733C406.587 243.437 406.817 243.198 407.109 243.071Z" fill="#2F2E41"/>
<path d="M413.384 251.121C414.492 250.638 414.992 249.337 414.502 248.216C414.011 247.095 412.715 246.577 411.607 247.061C410.499 247.544 409.999 248.845 410.489 249.966C410.98 251.087 412.276 251.604 413.384 251.121Z" fill="#F2F2F2"/>
<path opacity="0.1" d="M488.247 213.449L491.21 209.126C491.21 209.126 502.147 225.963 501.235 237.339C500.324 248.715 499.413 249.17 499.413 250.99C499.413 252.81 497.134 252.81 499.413 255.085C501.691 257.36 504.881 260.546 503.058 262.366C501.235 264.186 499.868 264.186 500.324 266.461C500.615 268.114 500.768 269.788 500.78 271.467C500.78 271.467 496.906 278.975 495.539 278.975C494.172 278.975 481.184 291.033 481.184 289.668C481.184 288.303 482.551 278.747 482.551 277.382C482.551 276.017 483.007 271.467 483.918 270.102C484.83 268.736 484.83 269.191 483.918 267.826C483.007 266.461 483.007 267.826 483.007 266.461C483.007 265.096 483.462 263.276 482.095 262.821C480.728 262.366 479.361 262.821 480.272 260.546C481.184 258.27 480.272 256.45 479.817 256.45C479.361 256.45 477.082 255.995 478.45 254.63C479.817 253.265 475.715 226.873 475.715 226.873C475.715 226.873 476.399 220.274 488.247 213.449Z" fill="black"/>
<path d="M485.741 203.666L493.488 207.306C493.488 207.306 504.426 224.142 503.514 235.518C502.603 246.894 501.691 247.35 501.691 249.17C501.691 250.99 499.413 250.99 501.691 253.265C503.97 255.54 507.16 258.726 505.337 260.546C503.514 262.366 502.147 262.366 502.603 264.641C502.894 266.294 503.047 267.968 503.058 269.647C503.058 269.647 498.957 291.488 497.59 291.488C496.223 291.488 483.463 289.213 483.463 287.848C483.463 286.483 484.83 276.927 484.83 275.562C484.83 274.197 485.286 269.647 486.197 268.281C487.108 266.916 487.108 267.371 486.197 266.006C485.286 264.641 485.285 266.006 485.285 264.641C485.285 263.276 485.741 261.456 484.374 261.001C483.007 260.546 481.64 261.001 482.551 258.726C483.463 256.45 482.551 254.63 482.095 254.63C481.64 254.63 479.361 254.175 480.728 252.81C482.096 251.445 477.994 225.052 477.994 225.052C477.994 225.052 473.893 210.491 485.741 203.666Z" fill="#575A89"/>
<path d="M416.591 266.981C416.166 267.093 415.716 267.056 415.316 266.876C414.916 266.695 414.59 266.383 414.394 265.991C412.3 261.81 406.625 249.547 411.915 249.17C416.795 248.822 421.141 258.323 422.916 262.811C423.029 263.096 423.08 263.401 423.066 263.708C423.051 264.014 422.972 264.314 422.834 264.587C422.695 264.86 422.5 265.102 422.261 265.294C422.022 265.487 421.745 265.627 421.448 265.704L416.591 266.981Z" fill="#FFB9B9"/>
<path d="M442.904 191.379C452.216 191.379 459.765 183.841 459.765 174.543C459.765 165.244 452.216 157.706 442.904 157.706C433.591 157.706 426.042 165.244 426.042 174.543C426.042 183.841 433.591 191.379 442.904 191.379Z" fill="#FFB9B9"/>
<path d="M436.708 164.846C434.604 165.571 432.432 166.083 430.226 166.374C428.565 166.633 426.622 166.766 425.454 165.558C424.309 164.373 424.494 162.396 425.276 160.945C426.057 159.495 427.308 158.358 428.247 157.004C429.724 154.874 430.595 152.05 432.957 150.977C433.935 150.603 434.974 150.41 436.021 150.406C442.148 150.016 448.526 149.664 454.2 152.005C456.332 152.817 458.221 154.159 459.687 155.904C460.647 157.189 461.389 158.624 461.88 160.15C463.397 164.642 463.734 169.447 462.86 174.106C461.985 178.765 459.929 183.122 456.887 186.761C454.819 184.901 455.718 180.602 453.102 179.654C452.243 179.343 451.273 179.559 450.394 179.313C447.63 178.54 447.769 174.275 445.469 172.562C444.966 172.292 444.521 171.927 444.159 171.487C443.956 171.065 443.869 170.598 443.904 170.131C443.887 168.534 444.638 164.476 443.112 163.381C441.559 162.266 438.2 164.308 436.708 164.846Z" fill="#2F2E41"/>
<path d="M427.529 440.599C427.529 440.599 426.289 413.979 400.878 417.073L427.529 440.599Z" fill="#E6E6E6"/>
<path d="M534.673 378.258C534.673 378.258 535.912 351.638 561.323 354.732L534.673 378.258Z" fill="#E6E6E6"/>
<path d="M534.148 463.185C534.116 462.905 531.098 434.989 543.319 420.216C547.829 414.763 553.873 411.71 561.282 411.141L561.364 412.193C554.253 412.739 548.456 415.664 544.136 420.886C532.2 435.311 535.167 462.79 535.198 463.066L534.148 463.185Z" fill="#E6E6E6"/>
<path d="M427.645 409.619H426.588V467.669H427.645V409.619Z" fill="#E6E6E6"/>
<path d="M534.405 351.041H533.348V467.669H534.405V351.041Z" fill="#E6E6E6"/>
<path d="M427.529 411.503C432.321 411.503 436.205 407.624 436.205 402.839C436.205 398.055 432.321 394.176 427.529 394.176C422.737 394.176 418.852 398.055 418.852 402.839C418.852 407.624 422.737 411.503 427.529 411.503Z" fill="#4585E5"/>
<path d="M534.673 351.638C539.465 351.638 543.35 347.759 543.35 342.974C543.35 338.189 539.465 334.31 534.673 334.31C529.881 334.31 525.996 338.189 525.996 342.974C525.996 347.759 529.881 351.638 534.673 351.638Z" fill="#4585E5"/>
<path d="M561.323 420.33C566.115 420.33 570 416.452 570 411.667C570 406.882 566.115 403.003 561.323 403.003C556.531 403.003 552.646 406.882 552.646 411.667C552.646 416.452 556.531 420.33 561.323 420.33Z" fill="#E6E6E6"/>
<path d="M301.896 77.5362H445.42V124.613H439.984V136.926L427.661 124.613H301.896V77.5362Z" fill="#E6E6E6"/>
<path d="M441.434 82.1205H305.883V119.782H441.434V82.1205Z" fill="white"/>
<path d="M382.047 93.1161H316.783V95.0951H382.047V93.1161Z" fill="#4585E5"/>
<path d="M430.533 99.9619H316.783V101.941H430.533V99.9619Z" fill="#E6E6E6"/>
<path d="M430.422 106.808H316.783V108.787H430.422V106.808Z" fill="#E6E6E6"/>
<path d="M252.405 150.123H120.428V193.277H125.428V204.563L136.759 193.277H252.405V150.123Z" fill="#E6E6E6"/>
<path d="M124.095 154.325H248.739V188.849H124.095V154.325Z" fill="white"/>
<path d="M178.703 164.405H238.716V166.219H178.703V164.405Z" fill="#4585E5"/>
<path d="M134.118 170.68H238.716V172.494H134.118V170.68Z" fill="#E6E6E6"/>
<path d="M134.22 176.955H238.716V178.769H134.22V176.955Z" fill="#E6E6E6"/>
<path d="M136.694 274.061C136.694 274.061 133.009 266.734 133.506 264.556C134.004 262.378 130.914 257.725 130.914 257.725L131.114 250.007C131.114 250.007 130.687 250.797 128.462 251.487C128.274 251.239 128.071 250.994 127.859 250.761C127.054 249.916 126.158 249.163 125.188 248.516L121.272 240.001L117.485 234.157C117.485 234.157 111.513 221.925 105.345 219.226L104.374 217.312C104.406 217.293 104.429 217.263 104.44 217.227C104.451 217.191 104.448 217.153 104.433 217.119L103.446 215.174C103.428 215.14 103.399 215.114 103.363 215.101C103.328 215.088 103.289 215.089 103.254 215.103L102.31 213.24C101.949 210.827 101.008 208.539 99.5686 206.576C99.4707 206.438 99.3649 206.312 99.2631 206.181L100.798 206.126C102.145 206.075 103.649 205.956 104.554 204.942C104.878 204.564 105.117 204.12 105.255 203.64C105.371 203.264 105.447 202.877 105.482 202.484C105.482 202.425 105.482 202.366 105.482 202.31C105.482 202.176 105.482 202.045 105.482 201.916C105.482 201.809 105.482 201.707 105.482 201.6C105.482 201.494 105.482 201.431 105.482 201.348C105.482 201.265 105.439 201.075 105.415 200.953C105.415 200.902 105.415 200.851 105.384 200.799C105.351 200.645 105.311 200.492 105.263 200.342C105.251 200.312 105.242 200.282 105.235 200.251C105.18 200.093 105.122 199.935 105.055 199.781C105.044 199.761 105.035 199.74 105.028 199.718C104.957 199.564 104.879 199.414 104.797 199.268L104.773 199.221C104.744 199.16 104.712 199.1 104.675 199.043C103.614 197.362 101.75 196.38 99.9759 195.492C98.3204 194.615 96.6211 193.825 94.8848 193.125C88.4287 190.685 81.2973 190.787 74.9122 193.409C74.2815 193.649 73.684 193.97 73.1342 194.364C72.3678 195.017 71.713 195.793 71.1957 196.66L68.1606 201.178C67.7365 201.728 67.4045 202.343 67.1777 203.001C66.6098 205.148 68.3917 207.298 68.1919 209.512C68.0901 210.612 67.5027 211.623 67.3891 212.723C67.2442 214.144 67.8982 215.513 68.5366 216.796L72.8796 225.476C72.6486 226.617 72.394 227.785 72.116 228.913C70.1148 230.997 69.4412 232.133 69.2572 232.748L69.1984 232.78C68.8021 233.038 68.4612 233.373 68.1959 233.766L64.0682 237.807C64.0682 237.807 56.8937 239.685 55.4016 242.065C55.4016 242.065 44.1425 241.567 44.2404 257.41C44.2404 257.41 43.7431 263.352 43.4572 264.145C43.1713 264.938 43.4572 272.956 43.4572 272.956L43.3241 289.197C43.3241 289.197 42.8933 297.811 43.3241 300.881C43.7548 303.951 44.2522 315.634 44.2522 315.634C44.2522 315.634 46.9426 327.022 45.9479 331.082C44.9924 334.969 45.9479 343.468 47.5144 343.503C47.812 344.123 48.1527 344.427 48.5248 344.253C48.6867 344.182 48.8528 344.122 49.0221 344.072V353.774C49.0221 353.774 47.0836 367.368 49.2571 369.952C47.8159 372.02 46.1241 375.547 45.6934 376.475L30.4593 375.65L28.5208 376.198L26.7428 376.7L25.6659 401.665L26.0967 401.696L26.0653 402.458L27.0836 402.533L25.6659 427.675L46.7547 429.423C45.8265 431.519 44.7496 433.764 44.3305 433.981C43.5473 434.375 41.8398 433.192 41.4404 433.681C41.0409 434.17 39.8465 434.77 38.4523 434.47C37.0581 434.17 36.1613 435.756 36.1613 435.756C36.1613 435.756 36.365 435.938 36.6704 436.273C34.4069 435.997 31.5441 437.22 29.9894 438.01C29.2923 438.365 28.8576 438.629 28.8576 438.629H24.7456L27.0052 453.154L28.5991 454.25L28.9907 465.693C28.9907 465.693 35.3663 485.497 38.2878 485.367C38.4775 485.36 38.6635 485.312 38.8331 485.227C39.0028 485.141 39.1521 485.019 39.2708 484.87C40.8373 483.047 39.7525 476.785 39.7525 476.785V466.36C39.7525 466.36 42.1414 465.303 41.8751 464.51C41.6088 463.716 45.7286 455.04 46.0967 454.25C46.1073 454.244 46.1158 454.235 46.1213 454.223C46.1268 454.212 46.1292 454.2 46.1281 454.187C46.1281 453.296 47.9217 452.305 47.8199 451.911C47.718 451.516 52.206 449.038 52.5193 446.86C52.8326 444.682 55.805 445.87 55.805 445.87L59.588 441.49C59.7016 446.828 59.917 450.565 60.2891 451.512C62.0827 456.07 62.7798 463.2 62.7798 463.2C62.7798 463.2 61.6832 468.645 62.7798 470.428C63.4533 471.517 65.0198 472.685 66.1085 473.652C64.9767 477.109 65.1373 484.456 65.1373 484.456V488.678L73.5062 491.045C73.5062 491.045 73.7686 488.934 74.1681 488.934C74.5675 488.934 79.8818 493.026 79.8818 493.026C79.8818 493.026 100.34 493.29 105.517 493.026C107.475 492.927 108.008 492.079 107.706 491.053C107.209 489.345 104.417 487.131 101.934 486.961C97.9473 486.697 92.8993 482.475 92.8993 482.475C92.8993 482.475 93.2909 481.548 91.1722 480.23C89.7076 479.322 85.6543 475.649 83.1479 473.498C83.2654 473.336 83.3868 473.175 83.5004 473.001C83.5004 473.001 80.1129 468.266 80.8139 466.167C81.5149 464.068 80.5123 461.037 80.5123 461.037C80.5123 461.037 78.6208 455.194 78.6208 452.222C78.6208 450.34 78.3388 439.635 78.1352 432.043L79.8818 432.189L79.9171 431.432L80.7003 431.503L88.1058 432.189L87.8787 424.215C91.4464 422.637 94.4148 421.173 95.6445 420.238C99.827 417.081 103.414 416.872 103.414 416.872C103.414 416.872 111.881 412.318 113.177 410.436C114.474 408.554 114.352 394.89 114.352 394.89L113.655 365.604V365.58C113.655 365.58 113.06 351.423 111.862 348.353C111.423 347.216 110.338 343.428 109.152 339.104C109.834 339.033 110.522 339.062 111.196 339.191C111.239 340.248 111.266 340.974 111.266 341.223C111.266 342.904 113.655 344.332 113.655 344.332L111.963 306.452V280.682C117.18 282.355 129.794 282.876 129.794 282.876C138.883 282.395 136.694 274.061 136.694 274.061ZM87.491 241.516H87.4636C87.6488 240.523 87.8907 239.541 88.1881 238.576L87.491 241.516ZM53.2556 371.44C56.3454 371.953 59.9131 371.803 60.1833 371.199C60.2107 371.14 60.246 371.033 60.293 370.895C60.3909 371.069 60.4849 371.246 60.5828 371.428L60.2812 377.141V377.272L50.0991 376.719C50.8118 373.661 52.159 372.17 53.2556 371.44ZM87.1973 400.268L86.9349 391.015C87.3892 389.31 87.7965 387.764 88.145 386.438C88.3017 387.539 88.4348 388.553 88.5366 389.488C89.5 398.267 88.0784 399.98 87.1973 400.268ZM116.177 261.541C115.594 261.766 113.373 260.357 111.266 258.897C111.266 258.629 111.286 258.365 111.298 258.108C111.595 252.067 101.832 248.307 98.8441 247.612C98.119 247.424 97.4155 247.159 96.745 246.823C95.153 246.029 93.6051 245.147 92.1082 244.183L92.1474 244.069C92.1474 244.069 88.2938 241.611 88.2116 238.545C89.0898 235.756 90.198 233.047 91.5247 230.444C91.5991 230.29 91.6813 230.128 91.7597 229.975C93.5808 229.404 95.2807 228.497 96.7724 227.299C97.3716 235.191 108.705 241.982 108.705 241.982L109.915 243.955L110.201 244.42C109.59 244.783 109.296 245.075 109.504 245.245C110.366 245.939 112.449 249.869 113.311 251.531C113.546 251.98 113.702 252.26 113.702 252.26C113.702 252.26 115.555 257.339 116.616 261.588C116.475 261.529 116.32 261.513 116.169 261.541H116.177Z" fill="url(#paint0_linear)"/>
<path d="M120.555 241.074L120.422 241.252L119.968 241.863L111.254 248.066L109.406 245.004L108.231 243.031C108.231 243.031 90.8628 232.535 98.331 222.418C105.799 212.301 116.835 235.242 116.835 235.242L120.555 241.074Z" fill="#FFC5D3"/>
<path d="M103.031 216.358C102.994 216.284 102.904 216.255 102.831 216.292C102.758 216.329 102.728 216.419 102.765 216.493L103.734 218.432C103.771 218.506 103.86 218.535 103.934 218.498C104.007 218.461 104.037 218.371 104 218.297L103.031 216.358Z" fill="#3A3768"/>
<path d="M93.0871 219.068L93.0836 219.07C93.043 219.091 93.0267 219.141 93.0471 219.182L93.336 219.759C93.3564 219.8 93.4059 219.817 93.4464 219.796L93.4499 219.794C93.4905 219.774 93.5068 219.724 93.4864 219.683L93.1975 219.105C93.1771 219.064 93.1276 219.048 93.0871 219.068Z" fill="#3A3768"/>
<path d="M93.878 220.437C93.8546 220.39 93.7981 220.371 93.7518 220.395C93.7054 220.419 93.6867 220.475 93.7101 220.522L94.2579 221.618C94.2813 221.665 94.3378 221.684 94.3842 221.66C94.4305 221.637 94.4492 221.58 94.4258 221.533L93.878 220.437Z" fill="#3A3768"/>
<path d="M94.7227 222.143C94.7003 222.098 94.6461 222.08 94.6017 222.103C94.5573 222.125 94.5394 222.18 94.5618 222.225L95.1184 223.338C95.1408 223.383 95.1949 223.401 95.2394 223.378C95.2838 223.356 95.3017 223.301 95.2793 223.257L94.7227 222.143Z" fill="#3A3768"/>
<path d="M99.9917 212.553L92.6745 216.265C92.2418 216.485 92.0676 217.016 92.2856 217.452L100.589 234.065C100.807 234.501 101.334 234.677 101.767 234.457L109.084 230.744C109.517 230.525 109.691 229.993 109.473 229.557L101.17 212.945C100.952 212.509 100.424 212.333 99.9917 212.553Z" fill="#3A3768"/>
<path d="M99.0556 213.607C99.0136 213.628 98.9762 213.657 98.9456 213.693C98.9149 213.729 98.8916 213.77 98.8771 213.815C98.8625 213.86 98.8569 213.907 98.8606 213.954C98.8644 214.001 98.8774 214.047 98.8989 214.089L98.9302 214.156C98.9518 214.198 98.9649 214.244 98.9687 214.291C98.9725 214.339 98.9669 214.386 98.9524 214.431C98.9378 214.476 98.9145 214.518 98.8838 214.554C98.8531 214.59 98.8157 214.62 98.7736 214.641L95.0062 216.551C94.9646 216.573 94.9192 216.586 94.8725 216.589C94.8259 216.593 94.779 216.588 94.7345 216.573C94.69 216.558 94.6489 216.535 94.6135 216.504C94.5781 216.473 94.5492 216.435 94.5284 216.393L94.4932 216.326C94.4724 216.284 94.4435 216.246 94.4082 216.215C94.3729 216.184 94.3319 216.16 94.2875 216.145C94.2432 216.13 94.1963 216.124 94.1496 216.128C94.1029 216.131 94.0573 216.143 94.0154 216.164L93.2831 216.539C93.2028 216.579 93.1312 216.634 93.0725 216.702C93.0137 216.77 92.969 216.849 92.9409 216.935C92.9129 217.021 92.902 217.111 92.909 217.201C92.9159 217.291 92.9406 217.378 92.9815 217.458L100.986 233.467C101.068 233.629 101.211 233.752 101.382 233.808C101.554 233.865 101.741 233.852 101.903 233.77L108.474 230.436C108.635 230.353 108.757 230.21 108.813 230.037C108.87 229.864 108.856 229.676 108.776 229.513L100.767 213.497C100.727 213.416 100.671 213.344 100.603 213.285C100.535 213.226 100.456 213.182 100.371 213.153C100.286 213.125 100.196 213.114 100.107 213.121C100.018 213.128 99.9305 213.152 99.8505 213.193L99.0556 213.607Z" fill="#4585E5"/>
<path d="M96.8663 214.82L95.8765 215.322C95.8069 215.357 95.7789 215.443 95.814 215.513C95.849 215.583 95.9338 215.611 96.0033 215.576L96.9931 215.073C97.0627 215.038 97.0906 214.953 97.0556 214.883C97.0206 214.813 96.9358 214.784 96.8663 214.82Z" fill="#E6E8EC"/>
<path d="M97.3793 214.866C97.468 214.866 97.5399 214.794 97.5399 214.704C97.5399 214.615 97.468 214.542 97.3793 214.542C97.2906 214.542 97.2187 214.615 97.2187 214.704C97.2187 214.794 97.2906 214.866 97.3793 214.866Z" fill="#E6E8EC"/>
<path d="M104.695 275.008L102.247 341.187C102.247 341.187 110.471 338.425 111.744 340.497C113.017 342.568 110.373 307.352 110.373 307.352L104.695 275.008Z" fill="#5F5570"/>
<path opacity="0.15" d="M104.695 275.008L102.247 341.187C102.247 341.187 110.471 338.425 111.744 340.497C113.017 342.568 110.373 307.352 110.373 307.352L104.695 275.008Z" fill="black"/>
<path d="M105.086 493.144C99.9953 493.409 79.8934 493.144 79.8934 493.144C79.8934 493.144 74.6692 489.068 74.2776 489.068C73.886 489.068 73.6275 491.171 73.6275 491.171L65.4035 488.804V484.598C65.4035 484.598 65.1411 472.622 67.62 472.101C70.099 471.581 81.0683 472.101 81.0683 472.101C81.4599 471.971 88.9007 479.074 90.988 480.388C93.0753 481.702 92.6837 482.625 92.6837 482.625C92.6837 482.625 97.6456 486.831 101.562 487.095C104.002 487.261 106.747 489.463 107.236 491.171C107.534 492.201 107.005 493.046 105.086 493.144Z" fill="#BC8487"/>
<path opacity="0.1" d="M105.086 493.144C99.9954 493.409 79.8935 493.144 79.8935 493.144C79.8935 493.144 74.6693 489.068 74.2777 489.068C73.8861 489.068 73.6276 491.172 73.6276 491.172L65.4036 488.804V484.681L73.1028 487.49L79.2395 491.172H107.236C107.534 492.201 107.005 493.046 105.086 493.144Z" fill="black"/>
<g opacity="0.1">
<path d="M82.2276 486.965C82.2276 486.965 88.4935 480.916 92.6838 482.625L82.2276 486.965Z" fill="black"/>
<path d="M82.2276 486.965C82.2276 486.965 88.4935 480.916 92.6838 482.625" stroke="black" stroke-width="1.64971" stroke-miterlimit="10"/>
</g>
<path d="M42.5565 464.735C42.8189 465.524 40.4692 466.577 40.4692 466.577V476.967C40.4692 476.967 41.5344 483.205 39.9953 485.024C39.8797 485.171 39.7337 485.292 39.5674 485.377C39.4011 485.462 39.2184 485.51 39.0319 485.517C36.1613 485.647 29.8954 465.918 29.8954 465.918L29.5038 454.519L27.9373 453.426L25.7168 438.957H29.7662C29.7662 438.957 30.193 438.692 30.8784 438.337C32.8365 437.331 36.9367 435.575 39.1651 437.248L46.7351 454.432C46.7351 454.432 42.298 463.945 42.5565 464.735Z" fill="#BC8487"/>
<path opacity="0.1" d="M39.9953 485.024C39.8797 485.171 39.7337 485.292 39.5674 485.377C39.4011 485.462 39.2184 485.51 39.0319 485.517C36.1613 485.647 29.8954 465.918 29.8954 465.918L29.5038 454.519L27.9373 453.426L25.7168 438.957H29.7662C29.7662 438.957 30.193 438.692 30.8784 438.337L31.8535 453.161L32.3744 465.918C32.3744 465.918 37.2931 479.808 39.9953 485.024Z" fill="black"/>
<path d="M112.625 410.843C111.352 412.717 103.03 417.255 103.03 417.255C103.03 417.255 99.5059 417.452 95.3939 420.609C93.2674 422.242 85.8775 425.482 79.2395 428.232C73.0402 430.801 67.4909 432.939 67.4909 432.939L61.0997 440.436L56.2319 446.146C56.2319 446.146 53.2947 444.962 53.001 447.132C52.7073 449.303 48.3015 451.769 48.3994 452.163C48.4974 452.558 46.7351 453.544 46.7351 454.432C46.7351 455.32 40.1754 448.02 40.2733 443.581C40.3712 439.142 36.9445 436.084 36.9445 436.084C36.9445 436.084 37.8257 434.506 39.1964 434.802C40.567 435.098 41.7419 434.506 42.1335 434.013C42.5251 433.519 44.1895 434.703 44.9728 434.308C45.756 433.914 48.889 426.121 48.889 426.121L61.0958 417.87L85.3762 401.471L86.4963 400.714C86.4963 400.714 89.7271 402.205 88.4152 389.985C88.1607 387.618 87.7338 384.741 87.0837 381.237C83.0696 359.634 97.4617 357.168 97.4617 357.168L110.091 361.41L113.126 366.145V366.168L113.812 395.344C113.812 395.344 113.898 408.968 112.625 410.843Z" fill="#433A59"/>
<path opacity="0.1" d="M79.1416 424.653C79.1416 424.653 79.1808 426.054 79.2395 428.232C73.0401 430.801 67.4909 432.939 67.4909 432.939L61.0996 440.436C60.9939 434.222 61.0174 426.148 61.0996 417.874L85.3801 401.475C82.3764 412.693 79.1416 424.653 79.1416 424.653Z" fill="black"/>
<path opacity="0.1" d="M113.115 366.156V366.18L94.121 366.551C94.121 366.551 90.7922 379.671 90.3027 382.433C90.1813 383.111 89.4451 386.012 88.4034 389.997C88.1488 387.629 87.7219 384.753 87.0718 381.249C83.0577 359.646 97.4498 357.18 97.4498 357.18L110.08 361.421L113.115 366.156Z" fill="black"/>
<path d="M63.0851 330.348L60.6375 377.698C60.6375 377.698 58.8752 447.243 60.6375 451.781C62.3998 456.318 63.0851 463.421 63.0851 463.421C63.0851 463.421 62.0081 468.846 63.0851 470.622C64.1621 472.397 67.5887 474.37 67.4908 475.357C67.3929 476.343 77.9667 481.67 83.4494 473.187C83.4494 473.187 80.1206 468.452 80.8059 466.38C81.4913 464.308 80.5122 461.25 80.5122 461.25C80.5122 461.25 78.652 455.43 78.652 452.459C78.652 449.488 77.9667 424.641 77.9667 424.641C77.9667 424.641 88.6383 385.183 89.1279 382.421C89.6174 379.659 92.9462 366.539 92.9462 366.539L113.115 366.145C113.115 366.145 112.527 352.038 111.352 348.98C110.177 345.922 104.401 323.53 104.401 323.53L63.0851 330.348Z" fill="#433A59"/>
<path d="M29.4255 376.767L27.6749 377.272L27.6044 379.016L80.0894 379.698V379.012L29.4255 376.767Z" fill="#7B728F"/>
<path d="M91.3328 231.553C83.6962 247.159 88.4387 250.422 89.1946 250.824C87.5772 250.067 66.555 240.115 69.3198 237.59C71.1174 235.945 72.6564 228.787 73.5611 223.657C74.0976 220.595 74.4109 218.255 74.4109 218.255L96.4709 222.332C94.3326 225.804 92.633 228.862 91.3328 231.553Z" fill="#FFC5D3"/>
<path opacity="0.1" d="M120.438 241.252L119.984 241.863L111.254 248.066L109.406 245.004C112.096 243.426 120.164 240.664 120.164 240.664L120.438 241.252Z" fill="black"/>
<path d="M128.486 255.476C127.703 258.238 114.485 255.476 114.485 255.476L113.115 253.306C113.115 253.306 112.978 253.03 112.747 252.58C111.901 250.927 109.853 247.013 109.007 246.318C107.93 245.43 120.559 241.09 120.559 241.09L124.429 249.573C125.382 250.219 126.262 250.97 127.053 251.811C128.032 252.88 128.842 254.218 128.486 255.476Z" fill="#E5E8EF"/>
<path d="M106.555 256.747C106.555 256.747 114.387 262.973 115.562 262.524C116.737 262.074 135.731 274.996 135.731 274.996C135.731 274.996 137.885 283.282 128.975 283.776C128.975 283.776 110.08 282.987 109.296 280.224C108.513 277.462 106.555 256.747 106.555 256.747Z" fill="#5F5570"/>
<path opacity="0.1" d="M85.2118 244.231L76.694 253.109L88.6384 329.658L93.3379 326.896C93.3379 326.896 105.478 332.321 106.457 327.29C107.436 322.259 107.166 302.431 107.166 302.431L105.576 266.611C105.576 266.611 99.9954 254.083 99.9954 253.689C99.9954 253.294 91.9476 247.178 91.9476 247.178L88.1489 244.219L85.2118 244.231Z" fill="black"/>
<path d="M85.2118 243.047L76.694 251.925L88.6384 328.474L93.3379 325.712C93.3379 325.712 105.478 331.137 106.457 326.106C107.436 321.075 107.166 301.248 107.166 301.248L105.576 265.428C105.576 265.428 99.9954 252.9 99.9954 252.505C99.9954 252.111 91.9476 245.995 91.9476 245.995L88.1489 243.035L85.2118 243.047Z" fill="#E5E8EF"/>
<path opacity="0.1" d="M85.7011 244.329L83.3514 249.163L85.7011 251.661C85.7011 251.661 94.121 268.793 92.4566 278.954L94.2189 312.395L99.8974 318.017L104.401 312.777L102.247 282.395C102.247 282.395 96.4707 257.339 90.4006 249.546L88.6383 242.641L85.7011 244.329Z" fill="black"/>
<path d="M85.7011 243.54L83.3514 248.374L85.7011 250.872C85.7011 250.872 94.121 268.004 92.4566 278.165L94.2189 311.605L99.8974 317.228L104.401 311.988L102.247 281.605C102.247 281.605 96.4707 256.55 90.4006 248.757L88.6383 241.851L85.7011 243.54Z" fill="#BC8487"/>
<path opacity="0.1" d="M96.4707 222.332C94.3325 225.804 92.6485 228.862 91.3327 231.553C89.9467 231.965 88.509 232.173 87.064 232.172C82.2236 232.172 79.4352 228.799 76.6939 225.216C76.0673 224.403 74.0074 224.592 73.5609 223.638C74.0975 220.576 74.4108 218.236 74.4108 218.236L96.4707 222.332Z" fill="black"/>
<path d="M102.075 216.65C102.075 220.252 100.799 223.735 98.4763 226.474C96.154 229.212 92.9379 231.026 89.4067 231.588C85.8756 232.15 82.2612 231.424 79.2141 229.54C76.167 227.656 73.8871 224.739 72.7847 221.312C71.6824 217.886 71.83 214.175 73.2009 210.849C74.5718 207.522 77.0761 204.798 80.2631 203.166C83.4501 201.534 87.1105 201.102 90.5857 201.947C94.0609 202.792 97.1226 204.859 99.22 207.775C101.076 210.356 102.075 213.462 102.075 216.65Z" fill="#FFC5D3"/>
<path opacity="0.1" d="M82.2746 250.347L69.9386 235.353C69.9386 235.353 68.799 234.891 72.6486 230.831C72.6486 230.831 86.7861 241.934 87.6633 243.82C88.5405 245.707 82.2746 250.347 82.2746 250.347Z" fill="black"/>
<path d="M81.8829 249.558L69.5468 234.564C69.5468 234.564 68.4072 234.102 72.2568 230.042C72.2568 230.042 86.3943 241.145 87.2716 243.031C88.1488 244.917 81.8829 249.558 81.8829 249.558Z" fill="#E5E8EF"/>
<path d="M113.115 344.987C113.115 344.987 110.765 343.567 110.765 341.89C110.765 340.213 109.59 316.538 109.59 316.538C109.59 316.538 107.867 302.408 106.065 291.178C105.008 284.561 103.923 278.946 103.156 277.833L103.124 277.786C101.068 275.123 101.46 262.101 88.6344 243.063C88.8068 243.181 93.2281 246.306 96.4668 247.877C97.1261 248.21 97.8177 248.475 98.5307 248.666C101.468 249.356 111.063 253.105 110.769 259.122C110.475 265.14 111.454 278.95 111.454 278.95V307.253L113.115 344.987Z" fill="#5F5570"/>
<path d="M113.115 253.306C113.115 253.306 117.227 264.749 116.639 267.61C116.052 270.47 126.136 281.716 126.136 281.716L135.731 275.008C135.731 275.008 132.108 267.708 132.598 265.538C133.087 263.368 130.052 258.732 130.052 258.732L130.248 251.045C130.248 251.045 128.486 254.379 113.115 253.306Z" fill="#5F5570"/>
<path opacity="0.1" d="M99.22 207.775L91.7793 208.06C91.0525 208.055 90.3284 208.146 89.6253 208.332C86.9662 209.156 85.7405 212.005 85.6426 214.566C85.5447 217.127 84.0761 219.996 81.229 220.221C80.9456 220.269 80.6547 220.204 80.4183 220.039C80.2377 219.845 80.1179 219.602 80.0737 219.341C79.6653 217.848 79.0341 216.427 78.2018 215.126C77.0269 215.34 76.1575 216.464 75.852 217.64C75.5466 218.816 75.6288 220.055 75.6327 221.274C75.6363 222.823 75.4881 224.368 75.1902 225.887C73.9762 224.299 73.0875 222.484 72.5759 220.547C72.0643 218.609 71.9399 216.589 72.21 214.603C72.4802 212.618 73.1394 210.706 74.1493 208.979C75.1593 207.252 76.4999 205.744 78.0932 204.544C79.6865 203.344 81.5007 202.475 83.4303 201.987C85.36 201.499 87.3666 201.403 89.3335 201.704C91.3004 202.004 93.1883 202.696 94.8876 203.738C96.5869 204.781 98.0635 206.153 99.2318 207.775H99.22Z" fill="black"/>
<path d="M89.2376 207.937C89.9406 207.752 90.6648 207.66 91.3915 207.665L100.426 207.326C101.75 207.274 103.226 207.156 104.115 206.166C104.434 205.787 104.669 205.345 104.805 204.867C105.037 204.105 105.105 203.301 105.005 202.509C104.904 201.718 104.637 200.957 104.221 200.278C103.175 198.601 101.343 197.627 99.596 196.727C97.9704 195.852 96.3012 195.062 94.595 194.36C88.2574 191.935 81.2406 192.036 74.9748 194.644C74.3557 194.883 73.7689 195.2 73.2282 195.587C72.4729 196.239 71.8299 197.012 71.3249 197.875L68.3525 202.389C67.9424 202.941 67.6261 203.557 67.4165 204.212C66.8565 206.355 68.5914 208.498 68.4112 210.703C68.3094 211.8 67.7337 212.806 67.628 213.903C67.487 215.32 68.1293 216.665 68.7598 217.956L73.984 228.574C74.8276 226.098 75.2551 223.497 75.2489 220.879C75.2489 219.66 75.1471 218.421 75.4682 217.245C75.7894 216.07 76.6431 214.945 77.818 214.732C78.6524 216.032 79.2849 217.453 79.6938 218.946C79.7371 219.208 79.8571 219.451 80.0384 219.644C80.2746 219.81 80.5657 219.875 80.8491 219.826C83.7118 219.601 85.1569 216.76 85.2627 214.172C85.3684 211.583 86.5785 208.762 89.2376 207.937Z" fill="#8F7080"/>
<path d="M27.6748 377.272L31.3326 376.218L86.4845 379.245L80.4144 380.034L27.6748 377.272Z" fill="#7B728F"/>
<path opacity="0.1" d="M27.6748 377.272L31.3326 376.218L86.4845 379.245L80.4144 380.034L27.6748 377.272Z" fill="black"/>
<path d="M87.9844 432.513L80.7081 431.83L78.1547 431.594V390.818L78.8283 381.352L78.9771 379.245H86.4845L87.9844 432.513Z" fill="#7B728F"/>
<path opacity="0.1" d="M85.995 431.065L80.1911 430.418L78.1547 430.193V391.532L78.6912 382.559L78.8087 380.559H84.7966L85.995 431.065Z" fill="black"/>
<path d="M46.1945 377.272C46.1945 377.272 49.817 369.266 51.3365 369.017C52.856 368.768 55.6443 369.017 55.6443 369.017L55.3976 371.337C55.3976 371.337 51.6772 371.633 50.5023 377.895L46.1945 377.272Z" fill="#7B728F"/>
<path opacity="0.1" d="M46.1945 377.272C46.1945 377.272 49.817 369.266 51.3365 369.017C52.856 368.768 55.6443 369.017 55.6443 369.017L55.3976 371.337C55.3976 371.337 51.6772 371.633 50.5023 377.895L46.1945 377.272Z" fill="black"/>
<path d="M60.2459 368.181C60.2459 368.181 69.9855 373.062 68.7127 378.783L63.4258 378.487C63.4258 378.487 60.8803 369.956 58.8752 369.51C56.8701 369.064 60.2459 368.181 60.2459 368.181Z" fill="#7B728F"/>
<path d="M96.4707 290.89V291.178L96.2749 324.035C96.2749 324.035 91.2818 351.656 89.9111 352.741C88.5404 353.826 58.4836 350.866 58.4836 350.866L44.8747 258.436C44.7768 242.652 55.8401 243.146 55.8401 243.146C57.3087 240.778 64.3579 238.904 64.3579 238.904L68.2741 235.057L68.3994 234.879C68.6596 234.488 68.9952 234.154 69.3863 233.897C70.193 233.427 70.706 234.047 70.9997 234.658C71.132 234.945 71.2343 235.246 71.3052 235.554C87.1698 247.277 96.4707 290.89 96.4707 290.89Z" fill="#5F5570"/>
<path opacity="0.1" d="M96.0792 291.285V291.573C91.1565 282.497 72.1904 248.113 67.0014 246.401L68.9987 245.02C68.9987 245.02 70.3302 244.231 67.8825 243.442C67.8825 243.442 64.0642 243.935 63.9663 239.299L68.0079 235.274L68.9948 234.291L70.6082 235.053C70.7404 235.34 70.8428 235.64 70.9137 235.949C86.7782 247.672 96.0792 291.285 96.0792 291.285Z" fill="black"/>
<path d="M96.4708 290.89V291.178C91.5481 282.103 72.5819 247.719 67.393 246.006L69.3902 244.625C69.3902 244.625 70.7217 243.836 68.2741 243.047C68.2741 243.047 64.4558 243.54 64.3579 238.904L68.3994 234.879L69.3863 233.897L70.9998 234.658C71.132 234.945 71.2344 235.246 71.3053 235.554C87.1698 247.277 96.4708 290.89 96.4708 290.89Z" fill="#433A59"/>
<path opacity="0.1" d="M103.551 278.212L103.52 278.165C101.464 275.501 101.856 262.48 89.03 243.442C89.2023 243.56 93.6237 246.685 96.8624 248.256L95.9578 251.262L97.9159 252.316L103.551 278.212Z" fill="black"/>
<path d="M103.16 277.818L103.128 277.77C101.072 275.107 101.464 262.086 88.6385 243.047C88.8108 243.165 93.2322 246.29 96.4709 247.861L95.5662 250.868L97.5243 251.921L103.16 277.818Z" fill="#433A59"/>
<path opacity="0.1" d="M88.0744 240.009L87.2716 243.426C87.2716 243.426 87.859 246.847 91.3797 247.143L91.9475 245.513C91.9475 245.513 88.1488 243.059 88.0744 240.009Z" fill="black"/>
<path d="M88.0744 239.614L87.2716 243.031C87.2716 243.031 87.859 246.452 91.3797 246.748L91.9475 245.119C91.9475 245.119 88.1488 242.664 88.0744 239.614Z" fill="#E5E8EF"/>
<path opacity="0.1" d="M83.0108 379.797L80.7081 431.83L78.1547 431.594V390.818L78.8283 381.352L83.0108 379.797Z" fill="black"/>
<path d="M28.1996 399.893L26.6331 428.039L79.8935 432.513L82.2275 379.797L28.1996 399.893Z" fill="#7B728F"/>
<path opacity="0.1" d="M27.0248 402.92L28.0665 378.061L82.6192 380.586L80.0228 406.865L27.0248 402.92Z" fill="black"/>
<path d="M26.6331 402.13L27.6748 377.272L82.2275 379.797L79.6311 406.076L26.6331 402.13Z" fill="#7B728F"/>
<path d="M56.1339 402.162H49.5743V409.856H56.1339V402.162Z" fill="#C3BBC8"/>
<path d="M50.5534 351.754L49.5743 354.418C49.5743 354.418 47.5183 369.017 50.0638 370.793C52.6094 372.568 60.1481 372.667 60.5397 371.779C60.9313 370.891 63.6727 360.83 63.6727 360.83C63.6727 360.83 66.1203 368.228 67.393 367.636C68.6658 367.044 64.4559 352.981 64.4559 352.981L50.5534 351.754Z" fill="#FFC5D3"/>
<path opacity="0.1" d="M49.5744 340.706V354.812C49.5744 354.812 59.9523 356.785 64.456 353.376C64.456 353.376 60.246 339.719 61.8125 336.267C63.379 332.814 49.5744 340.706 49.5744 340.706Z" fill="black"/>
<path d="M49.5744 340.311V354.418C49.5744 354.418 59.9523 356.391 64.456 352.981C64.456 352.981 60.246 339.325 61.8125 335.872C63.379 332.42 49.5744 340.311 49.5744 340.311Z" fill="#E5E8EF"/>
<path opacity="0.1" d="M48.3993 257.745L45.658 259.225C45.658 259.225 45.1685 265.144 44.8747 265.933C44.581 266.722 44.8747 274.712 44.8747 274.712L44.7416 290.89C44.7416 290.89 44.3186 299.472 44.7416 302.53C45.1645 305.588 45.6384 317.228 45.6384 317.228C45.6384 317.228 48.2858 328.573 47.3067 332.617C46.3277 336.661 47.4046 345.737 49.069 344.948C50.7334 344.158 66.1045 341.1 66.8877 340.509C67.671 339.917 67.2794 334.393 66.8877 333.702C66.4961 333.012 64.1464 323.64 64.3422 321.47C64.538 319.3 63.6569 300.261 63.6569 300.261C63.6569 300.261 65.1254 279.94 65.7129 275.205C66.3003 270.47 64.538 256.561 62.9715 256.364C61.4051 256.167 56.8192 245.415 48.3993 257.745Z" fill="black"/>
<path d="M47.6161 256.956L44.8748 258.436C44.8748 258.436 44.3853 264.354 44.0915 265.144C43.7978 265.933 44.0915 273.923 44.0915 273.923L43.9584 290.101C43.9584 290.101 43.5354 298.683 43.9584 301.741C44.3813 304.799 44.8552 316.439 44.8552 316.439C44.8552 316.439 47.5026 327.783 46.5235 331.828C45.5445 335.872 46.6214 344.948 48.2858 344.158C49.9502 343.369 65.3213 340.311 66.1045 339.719C66.8878 339.128 66.4962 333.603 66.1045 332.913C65.7129 332.222 63.3632 322.851 63.559 320.681C63.7548 318.511 62.8737 299.472 62.8737 299.472C62.8737 299.472 64.3422 279.151 64.9297 274.416C65.5171 269.681 63.7548 255.772 62.1883 255.575C60.6218 255.378 56.036 244.625 47.6161 256.956Z" fill="#5F5570"/>
<g clip-path="url(#clip0)">
<g opacity="0.5">
<path opacity="0.5" d="M304.823 234.264L284.796 366.776L380.865 381.247L400.893 248.734L304.823 234.264Z" fill="url(#paint1_linear)"/>
</g>
<path d="M305.899 235.425L286.314 365.008L379.94 379.11L399.525 249.527L305.899 235.425Z" fill="#F5F5F5"/>
<path d="M377.446 303.677L309.873 293.499L309.255 297.588L376.828 307.766L377.446 303.677Z" fill="#E0E0E0"/>
<path d="M375.902 313.897L308.328 303.719L307.71 307.808L375.284 317.986L375.902 313.897Z" fill="#E0E0E0"/>
<path d="M382.388 270.969L347.577 265.726L346.959 269.815L381.77 275.058L382.388 270.969Z" fill="#E0E0E0"/>
<path d="M377.774 280.729L349.105 276.411L348.487 280.5L377.156 284.818L377.774 280.729Z" fill="#4585E5"/>
<path d="M366.166 322.885L306.782 313.94L306.164 318.029L365.548 326.974L366.166 322.885Z" fill="#E0E0E0"/>
<path d="M356.428 331.872L305.236 324.162L304.618 328.251L355.81 335.961L356.428 331.872Z" fill="#E0E0E0"/>
<path d="M348.741 341.168L303.692 334.382L303.074 338.471L348.123 345.257L348.741 341.168Z" fill="#E0E0E0"/>
<path d="M359.482 353.24L302.147 344.604L301.529 348.693L358.864 357.329L359.482 353.24Z" fill="#E0E0E0"/>
<path d="M323.128 358.216L300.604 354.824L299.986 358.913L322.51 362.305L323.128 358.216Z" fill="#4585E5"/>
<g opacity="0.5">
<path opacity="0.5" d="M340.979 271.35C341.335 268.994 341.073 266.587 340.221 264.362C339.368 262.137 337.953 260.171 336.113 258.654C334.273 257.137 332.071 256.121 329.721 255.706C327.372 255.291 324.954 255.49 322.704 256.284C320.455 257.078 318.449 258.44 316.883 260.237C315.317 262.034 314.243 264.206 313.767 266.54C313.291 268.874 313.428 271.292 314.166 273.557C314.903 275.823 316.215 277.859 317.975 279.468C317.975 279.488 317.975 279.51 317.975 279.529C318.356 280.026 318.832 280.442 319.375 280.754L319.402 280.695C319.959 281.339 322.522 282.622 325.619 283.079H325.688C327.65 283.378 329.83 283.351 331.853 282.622C331.853 282.622 331.876 282.587 331.912 282.524C332.421 282.372 332.901 282.14 333.335 281.836L333.379 281.684C335.39 280.705 337.132 279.253 338.456 277.453C339.78 275.652 340.646 273.558 340.979 271.35Z" fill="url(#paint2_linear)"/>
</g>
<path d="M340.508 270.786C341.612 263.476 336.572 256.657 329.25 255.554C321.928 254.451 315.097 259.482 313.992 266.792C312.888 274.101 317.928 280.921 325.25 282.024C332.572 283.127 339.403 278.095 340.508 270.786Z" fill="#F5F5F5"/>
<path d="M321.139 273.198C321.139 273.198 317.95 272.98 317.909 278.851C318.279 279.331 318.741 279.733 319.267 280.034L321.95 274.297L321.139 273.198Z" fill="#FDA57D"/>
<path d="M331.39 274.743C331.39 274.743 334.51 275.478 332.808 281.096C332.312 281.448 331.752 281.697 331.159 281.831L330.289 275.561L331.39 274.743Z" fill="#FDA57D"/>
<path d="M322.698 263.807C322.698 263.807 320.535 267.947 319.778 267.413C319.778 267.413 326.659 275.426 334.676 269.656C334.053 268.096 333.244 266.616 332.268 265.249L322.698 263.807Z" fill="#333333"/>
<path d="M333.72 265.051C334.21 261.811 331.976 258.789 328.731 258.3C325.486 257.811 322.458 260.041 321.968 263.281C321.479 266.521 323.712 269.543 326.958 270.032C330.203 270.521 333.23 268.291 333.72 265.051Z" fill="#333333"/>
<path opacity="0.1" d="M331.329 274.733L321.077 273.191L319.503 277.14C319.503 277.14 318.654 278.949 319.228 279.889C319.802 280.829 326.044 283.706 331.245 281.848C331.829 280.819 332.058 279.628 331.898 278.457C331.64 276.464 331.782 278.3 331.782 278.3L331.329 274.733Z" fill="black"/>
<path opacity="0.1" d="M331.466 274.755L321.215 273.213L319.643 277.16C319.643 277.16 318.794 278.969 319.368 279.909C319.942 280.849 326.183 283.726 331.385 281.868C331.968 280.839 332.198 279.648 332.037 278.477C331.78 276.484 331.922 278.32 331.922 278.32L331.466 274.755Z" fill="black"/>
<path d="M331.39 274.743L321.139 273.201L319.564 277.15C319.564 277.15 318.716 278.959 319.289 279.899C319.863 280.839 326.105 283.716 331.307 281.858C331.89 280.829 332.119 279.638 331.959 278.467C331.701 276.474 331.844 278.31 331.844 278.31L331.39 274.743Z" fill="#FDD835"/>
<path opacity="0.1" d="M324.793 270.288L328.894 270.906L328.336 274.6C328.27 275.032 328.036 275.421 327.683 275.68C327.331 275.94 326.89 276.049 326.457 275.984L325.618 275.857C325.185 275.792 324.796 275.558 324.536 275.206C324.276 274.855 324.167 274.414 324.232 273.982L324.791 270.288L324.793 270.288Z" fill="black"/>
<path d="M324.813 270.137L328.914 270.754L328.355 274.448C328.29 274.881 328.056 275.269 327.703 275.529C327.351 275.788 326.91 275.897 326.477 275.832L325.641 275.706C325.208 275.641 324.819 275.407 324.559 275.055C324.299 274.703 324.189 274.263 324.255 273.831L324.813 270.137Z" fill="#FDA57D"/>
<path opacity="0.1" d="M324.736 270.716C325.983 271.408 327.437 271.631 328.834 271.345L328.91 270.843L324.81 270.226L324.736 270.716Z" fill="black"/>
<path d="M333.528 266.323C334.017 263.084 331.783 260.061 328.538 259.573C325.293 259.084 322.266 261.314 321.776 264.553C321.286 267.793 323.52 270.815 326.765 271.304C330.01 271.793 333.038 269.563 333.528 266.323Z" fill="#FDA57D"/>
<path d="M322.358 262.36L333.565 264.047C333.565 264.047 333.291 259.395 329.011 259.035C324.732 258.675 322.358 262.36 322.358 262.36Z" fill="#333333"/>
<path d="M322.479 264.401C322.565 263.836 322.39 263.341 322.088 263.295C321.787 263.25 321.473 263.672 321.388 264.237C321.302 264.803 321.477 265.298 321.779 265.343C322.08 265.389 322.394 264.967 322.479 264.401Z" fill="#FDA57D"/>
<path d="M333.96 266.132C334.046 265.566 333.871 265.071 333.57 265.025C333.268 264.98 332.955 265.402 332.869 265.967C332.784 266.533 332.959 267.028 333.26 267.074C333.561 267.119 333.875 266.697 333.96 266.132Z" fill="#FDA57D"/>
<path opacity="0.1" d="M322.34 262.511L333.548 264.198C333.548 264.198 333.273 259.547 328.994 259.187C324.714 258.827 322.34 262.511 322.34 262.511Z" fill="black"/>
<g opacity="0.5">
<path opacity="0.5" d="M282.683 253.304L186.497 268.822L207.976 401.494L304.162 385.975L282.683 253.304Z" fill="url(#paint3_linear)"/>
</g>
<path d="M281.237 254.078L187.799 269.37L209.036 398.693L302.474 383.401L281.237 254.078Z" fill="#F5F5F5"/>
<path d="M276.905 312.369L209.467 323.406L210.138 327.486L277.576 316.45L276.905 312.369Z" fill="#E0E0E0"/>
<path d="M278.58 322.57L211.142 333.607L211.812 337.688L279.25 326.651L278.58 322.57Z" fill="#E0E0E0"/>
<path d="M271.547 279.728L236.806 285.413L237.476 289.494L272.218 283.808L271.547 279.728Z" fill="#E0E0E0"/>
<path d="M270.156 290.431L241.545 295.113L242.215 299.194L270.826 294.511L270.156 290.431Z" fill="#4585E5"/>
<path d="M272.082 334.108L212.817 343.808L213.487 347.888L272.753 338.189L272.082 334.108Z" fill="#E0E0E0"/>
<path d="M265.582 345.645L214.492 354.006L215.162 358.087L266.252 349.725L265.582 345.645Z" fill="#E0E0E0"/>
<path d="M261.127 356.85L216.167 364.208L216.837 368.289L261.797 360.931L261.127 356.85Z" fill="#E0E0E0"/>
<path d="M275.062 365.042L217.842 374.407L218.512 378.487L275.733 369.123L275.062 365.042Z" fill="#E0E0E0"/>
<path d="M241.998 380.93L219.519 384.609L220.189 388.689L242.668 385.011L241.998 380.93Z" fill="#4585E5"/>
<g opacity="0.5">
<path opacity="0.5" d="M233.514 291.906C233.117 289.489 232.1 287.216 230.562 285.308C229.024 283.401 227.017 281.923 224.737 281.019C222.458 280.115 219.982 279.815 217.552 280.15C215.122 280.484 212.82 281.441 210.87 282.927C208.92 284.413 207.389 286.377 206.425 288.629C205.461 290.881 205.098 293.344 205.37 295.778C205.643 298.211 206.541 300.533 207.979 302.517C209.417 304.501 211.345 306.08 213.575 307.1L213.595 307.161C214.125 307.524 214.722 307.779 215.351 307.91V307.844C216.099 308.299 219.013 308.747 222.189 308.219H222.257C224.271 307.893 226.395 307.178 228.143 305.827C228.143 305.827 228.143 305.787 228.168 305.714C228.617 305.406 229.014 305.027 229.342 304.593C229.342 304.537 229.342 304.483 229.342 304.431C231.004 302.838 232.252 300.865 232.978 298.683C233.705 296.501 233.889 294.175 233.514 291.906Z" fill="url(#paint4_linear)"/>
</g>
<path d="M221.725 307.774C229.236 306.545 234.328 299.469 233.096 291.97C231.865 284.471 224.777 279.388 217.265 280.618C209.753 281.847 204.662 288.923 205.893 296.422C207.125 303.921 214.213 309.003 221.725 307.774Z" fill="#F5F5F5"/>
<path d="M214.478 300.472C214.478 300.472 211.29 301.268 213.105 307.021C213.618 307.376 214.198 307.626 214.809 307.756L215.621 301.297L214.478 300.472Z" fill="#4D8AF0"/>
<path d="M224.994 298.751C224.994 298.751 228.278 298.484 228.388 304.522C228.013 305.016 227.544 305.432 227.008 305.746L224.173 299.885L224.994 298.751Z" fill="#4D8AF0"/>
<path d="M219.158 295.534C222.488 294.989 224.745 291.853 224.199 288.529C223.653 285.205 220.511 282.953 217.182 283.498C213.852 284.042 211.596 287.179 212.142 290.503C212.687 293.826 215.829 296.079 219.158 295.534Z" fill="#333333"/>
<path d="M224.933 298.761L214.417 300.475L214.125 304.835C214.125 304.835 213.88 306.874 214.726 307.611C215.572 308.348 222.603 309.198 227.089 305.731C227.334 304.541 227.182 303.303 226.655 302.208C225.772 300.34 226.49 302.09 226.49 302.09L224.933 298.761Z" fill="#4D8AF0"/>
<path d="M225.073 298.739L214.556 300.453L214.264 304.813C214.264 304.813 214.019 306.852 214.865 307.589C215.711 308.326 222.743 309.176 227.228 305.709C227.474 304.519 227.321 303.281 226.794 302.186C225.911 300.318 226.63 302.068 226.63 302.068L225.073 298.739Z" fill="#4D8AF0"/>
<path d="M224.994 298.751L214.478 300.465L214.186 304.832C214.186 304.832 213.941 306.872 214.787 307.609C215.633 308.346 222.664 309.195 227.15 305.729C227.395 304.538 227.243 303.301 226.716 302.205C225.833 300.337 226.552 302.088 226.552 302.088L224.994 298.751Z" fill="#4D8AF0"/>
<path opacity="0.1" d="M217.135 296.458L221.341 295.769L221.971 299.603C222.041 300.035 221.938 300.476 221.682 300.831C221.427 301.186 221.041 301.425 220.609 301.496L219.658 301.652C219.226 301.722 218.783 301.619 218.428 301.364C218.072 301.109 217.833 300.723 217.762 300.292L217.132 296.458L217.135 296.458Z" fill="black"/>
<path d="M217.11 296.302L221.316 295.614L221.946 299.448C222.017 299.879 221.913 300.321 221.657 300.676C221.402 301.031 221.016 301.27 220.584 301.34L219.633 301.496C219.201 301.567 218.758 301.463 218.403 301.208C218.047 300.953 217.808 300.568 217.737 300.137L217.107 296.302L217.11 296.302Z" fill="#FDA57D"/>
<path opacity="0.1" d="M217.212 296.907C218.651 297.192 220.144 296.952 221.421 296.232L221.335 295.715L217.129 296.405L217.212 296.907Z" fill="black"/>
<path d="M219.375 296.841C222.704 296.296 224.961 293.16 224.415 289.836C223.869 286.512 220.728 284.259 217.398 284.804C214.069 285.349 211.812 288.485 212.358 291.809C212.904 295.133 216.045 297.386 219.375 296.841Z" fill="#FDA57D"/>
<path opacity="0.1" d="M212.268 289.636L223.768 287.756C223.768 287.756 222.024 283.28 217.727 284.289C213.431 285.298 212.268 289.636 212.268 289.636Z" fill="black"/>
<path d="M212.241 289.482L223.751 287.599C223.751 287.599 222.007 283.124 217.71 284.132C213.414 285.141 212.241 289.482 212.241 289.482Z" fill="#333333"/>
<path d="M212.683 292.943C212.994 292.893 213.17 292.38 213.076 291.798C212.982 291.216 212.653 290.785 212.342 290.835C212.031 290.885 211.855 291.398 211.949 291.98C212.044 292.562 212.372 292.994 212.683 292.943Z" fill="#FDA57D"/>
<path d="M224.389 290.654C224.699 290.603 224.873 290.092 224.778 289.511C224.682 288.931 224.354 288.501 224.044 288.552C223.734 288.603 223.56 289.115 223.655 289.695C223.75 290.275 224.079 290.705 224.389 290.654Z" fill="#FDA57D"/>
<g opacity="0.5">
<path opacity="0.5" d="M352.888 274.77H255.731V408.782H352.888V274.77Z" fill="url(#paint5_linear)"/>
</g>
<path d="M351.652 275.757H256.967V406.806H351.652V275.757Z" fill="white"/>
<g opacity="0.5">
<path opacity="0.5" d="M269.612 305.741C269.612 303.237 270.262 300.776 271.498 298.597C272.733 296.418 274.513 294.595 276.664 293.307C278.814 292.018 281.262 291.307 283.77 291.243C286.277 291.18 288.758 291.765 290.972 292.942C293.186 294.119 295.056 295.849 296.402 297.962C297.747 300.075 298.522 302.5 298.65 305.001C298.778 307.501 298.256 309.992 297.134 312.232C296.011 314.471 294.328 316.382 292.246 317.779V317.843C291.772 318.297 291.211 318.654 290.598 318.891L290.578 318.827C289.899 319.41 287.035 320.342 283.743 320.333H283.672C281.588 320.333 279.326 319.965 277.335 318.891C277.335 318.891 277.318 318.851 277.291 318.78C276.786 318.544 276.323 318.227 275.92 317.843L275.898 317.679C273.959 316.347 272.374 314.564 271.279 312.484C270.184 310.405 269.612 308.09 269.612 305.741Z" fill="url(#paint6_linear)"/>
</g>
<path d="M284.138 319.809C291.921 319.809 298.23 313.51 298.23 305.741C298.23 297.971 291.921 291.673 284.138 291.673C276.355 291.673 270.046 297.971 270.046 305.741C270.046 313.51 276.355 319.809 284.138 319.809Z" fill="#F5F5F5"/>
<path d="M278.61 311.1C278.61 311.1 275.253 311.372 276.141 317.493C276.601 317.933 277.145 318.279 277.74 318.509L279.628 312.126L278.61 311.1Z" fill="#BE7C5E"/>
<path d="M289.507 311.1C289.507 311.1 292.864 311.372 291.976 317.493C291.516 317.933 290.972 318.279 290.377 318.509L288.496 312.106L289.507 311.1Z" fill="#BE7C5E"/>
<path d="M278.755 301.089C278.755 301.089 278.497 301.841 278.13 302.71C277.33 304.61 278.242 311.911 280.155 312.689C282.301 313.563 285.124 314.121 288.055 313.054C290.603 312.126 291.388 303.816 289.588 301.792C289.377 301.547 289.156 301.319 288.925 301.089H278.755Z" fill="#333333"/>
<path d="M284.148 306.892C287.598 306.892 290.394 304.1 290.394 300.656C290.394 297.212 287.598 294.42 284.148 294.42C280.698 294.42 277.901 297.212 277.901 300.656C277.901 304.1 280.698 306.892 284.148 306.892Z" fill="#333333"/>
<path opacity="0.1" d="M289.443 311.1H278.547L277.529 315.451C277.529 315.451 276.93 317.466 277.673 318.352C278.417 319.238 285.357 321.253 290.458 318.496C290.903 317.336 290.953 316.062 290.603 314.87C290.022 312.841 290.458 314.726 290.458 314.726L289.443 311.1Z" fill="black"/>
<path opacity="0.1" d="M289.588 311.1H278.686L277.669 315.451C277.669 315.451 277.07 317.466 277.813 318.352C278.556 319.238 285.497 321.253 290.598 318.496C291.043 317.336 291.093 316.062 290.743 314.87C290.162 312.841 290.598 314.726 290.598 314.726L289.588 311.1Z" fill="black"/>
<path d="M289.507 311.1H278.61L277.593 315.451C277.593 315.451 276.994 317.466 277.737 318.352C278.48 319.238 285.421 321.253 290.522 318.496C290.966 317.336 291.017 316.062 290.667 314.87C290.085 312.841 290.522 314.726 290.522 314.726L289.507 311.1Z" fill="#3AD29F"/>
<path opacity="0.1" d="M281.953 307.489H286.311V311.499C286.311 311.936 286.137 312.355 285.827 312.664C285.518 312.973 285.098 313.147 284.66 313.147H283.601C283.163 313.147 282.743 312.973 282.434 312.664C282.124 312.355 281.95 311.936 281.95 311.499V307.489H281.953Z" fill="black"/>
<path d="M281.953 307.327H286.311V311.338C286.311 311.775 286.137 312.194 285.827 312.503C285.518 312.812 285.098 312.985 284.66 312.985H283.601C283.163 312.985 282.743 312.812 282.434 312.503C282.124 312.194 281.95 311.775 281.95 311.338V307.327H281.953Z" fill="#BE7C5E"/>
<path opacity="0.1" d="M281.96 307.944C283.366 308.464 284.912 308.464 286.318 307.944V307.411H281.96V307.944Z" fill="black"/>
<path d="M284.148 308.245C287.598 308.245 290.394 305.454 290.394 302.01C290.394 298.566 287.598 295.774 284.148 295.774C280.698 295.774 277.901 298.566 277.901 302.01C277.901 305.454 280.698 308.245 284.148 308.245Z" fill="#BE7C5E"/>
<path d="M278.174 299.642H290.088C290.088 299.642 289.07 294.839 284.567 295.147C280.065 295.456 278.174 299.642 278.174 299.642Z" fill="#333333"/>
<path d="M278.031 302.832C278.352 302.832 278.613 302.346 278.613 301.745C278.613 301.145 278.352 300.658 278.031 300.658C277.71 300.658 277.45 301.145 277.45 301.745C277.45 302.346 277.71 302.832 278.031 302.832Z" fill="#BE7C5E"/>
<path d="M290.235 302.832C290.556 302.832 290.816 302.346 290.816 301.745C290.816 301.145 290.556 300.658 290.235 300.658C289.914 300.658 289.654 301.145 289.654 301.745C289.654 302.346 289.914 302.832 290.235 302.832Z" fill="#BE7C5E"/>
<path opacity="0.1" d="M278.174 299.801H290.088C290.088 299.801 289.07 294.998 284.567 295.306C280.065 295.615 278.174 299.801 278.174 299.801Z" fill="black"/>
<path d="M337.931 332.581H269.592V336.717H337.931V332.581Z" fill="#E0E0E0"/>
<path d="M337.931 342.918H269.592V347.053H337.931V342.918Z" fill="#E0E0E0"/>
<path d="M337.933 299.505H302.728V303.64H337.933V299.505Z" fill="#E0E0E0"/>
<path d="M334.826 309.842H305.833V313.977H334.826V309.842Z" fill="#4585E5"/>
<path d="M329.649 353.255H269.592V357.39H329.649V353.255Z" fill="#E0E0E0"/>
<path d="M321.364 363.591H269.592V367.727H321.364V363.591Z" fill="#E0E0E0"/>
<path d="M315.152 373.931H269.592V378.066H315.152V373.931Z" fill="#E0E0E0"/>
<path d="M327.576 384.267H269.592V388.402H327.576V384.267Z" fill="#E0E0E0"/>
<path d="M292.371 394.604H269.592V398.739H292.371V394.604Z" fill="#4585E5"/>
<g opacity="0.5">
<path opacity="0.5" d="M346.335 417.378C357.766 417.378 367.032 408.128 367.032 396.717C367.032 385.306 357.766 376.056 346.335 376.056C334.905 376.056 325.639 385.306 325.639 396.717C325.639 408.128 334.905 417.378 346.335 417.378Z" fill="url(#paint7_linear)"/>
</g>
<path d="M346.335 416.161C357.093 416.161 365.813 407.456 365.813 396.717C365.813 385.978 357.093 377.272 346.335 377.272C335.578 377.272 326.858 385.978 326.858 396.717C326.858 407.456 335.578 416.161 346.335 416.161Z" fill="#69F0AE"/>
<path d="M337.882 394.122L345.185 400.805L355.532 385.616L359.186 388.655L345.185 406.882L334.838 395.338L337.882 394.122Z" fill="white"/>
</g>
<defs>
<linearGradient id="paint0_linear" x1="80.8374" y1="493.144" x2="80.8374" y2="191.357" gradientUnits="userSpaceOnUse">
<stop stop-color="#808080" stop-opacity="0.25"/>
<stop offset="0.54" stop-color="#808080" stop-opacity="0.12"/>
<stop offset="1" stop-color="#808080" stop-opacity="0.1"/>
</linearGradient>
<linearGradient id="paint1_linear" x1="332.83" y1="374.011" x2="352.791" y2="241.489" gradientUnits="userSpaceOnUse">
<stop stop-color="#808080" stop-opacity="0.25"/>
<stop offset="0.54" stop-color="#808080" stop-opacity="0.12"/>
<stop offset="1" stop-color="#808080" stop-opacity="0.1"/>
</linearGradient>
<linearGradient id="paint2_linear" x1="16385.3" y1="20533" x2="16852.8" y2="17428.9" gradientUnits="userSpaceOnUse">
<stop stop-color="#808080" stop-opacity="0.25"/>
<stop offset="0.54" stop-color="#808080" stop-opacity="0.12"/>
<stop offset="1" stop-color="#808080" stop-opacity="0.1"/>
</linearGradient>
<linearGradient id="paint3_linear" x1="54149.9" y1="43984.4" x2="42432.2" y2="-28642.5" gradientUnits="userSpaceOnUse">
<stop stop-color="#808080" stop-opacity="0.25"/>
<stop offset="0.54" stop-color="#808080" stop-opacity="0.12"/>
<stop offset="1" stop-color="#808080" stop-opacity="0.1"/>
</linearGradient>
<linearGradient id="paint4_linear" x1="11319.5" y1="-860.381" x2="10785.5" y2="-4123.1" gradientUnits="userSpaceOnUse">
<stop stop-color="#808080" stop-opacity="0.25"/>
<stop offset="0.54" stop-color="#808080" stop-opacity="0.12"/>
<stop offset="1" stop-color="#808080" stop-opacity="0.1"/>
</linearGradient>
<linearGradient id="paint5_linear" x1="46960.2" y1="95803.9" x2="46960.2" y2="22449.7" gradientUnits="userSpaceOnUse">
<stop stop-color="#808080" stop-opacity="0.25"/>
<stop offset="0.54" stop-color="#808080" stop-opacity="0.12"/>
<stop offset="1" stop-color="#808080" stop-opacity="0.1"/>
</linearGradient>
<linearGradient id="paint6_linear" x1="14947.8" y1="12731.8" x2="14947.8" y2="9274.01" gradientUnits="userSpaceOnUse">
<stop stop-color="#808080" stop-opacity="0.25"/>
<stop offset="0.54" stop-color="#808080" stop-opacity="0.12"/>
<stop offset="1" stop-color="#808080" stop-opacity="0.1"/>
</linearGradient>
<linearGradient id="paint7_linear" x1="27316.7" y1="31282.6" x2="27316.7" y2="24308.7" gradientUnits="userSpaceOnUse">
<stop stop-color="#808080" stop-opacity="0.25"/>
<stop offset="0.54" stop-color="#808080" stop-opacity="0.12"/>
<stop offset="1" stop-color="#808080" stop-opacity="0.1"/>
</linearGradient>
<clipPath id="clip0">
<rect width="214.462" height="183.117" fill="white" transform="translate(186.417 234.258)"/>
</clipPath>
</defs>
</svg>
